<svg xmlns="http://www.w3.org/2000/svg" viewBox="0 0 500 500"><g id="freepik--background-complete--inject-84"><path d="M153.4,109a6.52,6.52,0,0,1,2.54-.26,10.1,10.1,0,0,1,2.46.2l-.06.06c0-.05,0-.08.06-.08s0,0,.07.08a.08.08,0,0,1,0,0h0a9.59,9.59,0,0,1-2.46.2A6.3,6.3,0,0,1,153.4,109Z" style="fill:#e0e0e0"></path><path d="M143.4,109a12.15,12.15,0,0,1,5,0,12.15,12.15,0,0,1-5,0Z" style="fill:#e0e0e0"></path><path d="M133.4,109a12.15,12.15,0,0,1,5,0,12.15,12.15,0,0,1-5,0Z" style="fill:#e0e0e0"></path><path d="M123.4,109a12.15,12.15,0,0,1,5,0,6.11,6.11,0,0,1-2.5.26A6.11,6.11,0,0,1,123.4,109Z" style="fill:#e0e0e0"></path><path d="M113.4,109a6.31,6.31,0,0,1,2.5-.26,6.31,6.31,0,0,1,2.5.26,6.11,6.11,0,0,1-2.5.26A6.11,6.11,0,0,1,113.4,109Z" style="fill:#e0e0e0"></path><path d="M103.4,109a6.31,6.31,0,0,1,2.5-.26,6.31,6.31,0,0,1,2.5.26,6.11,6.11,0,0,1-2.5.26A6.11,6.11,0,0,1,103.4,109Z" style="fill:#e0e0e0"></path><path d="M96.55,105.87a6.31,6.31,0,0,1,.26,2.5c0,.21,0,.42,0,.64l-.25-.25c1.07,0,1.85.13,1.85.25s-.78.22-1.85.25a.23.23,0,0,1-.25-.23h0v-.64A6.11,6.11,0,0,1,96.55,105.87Z" style="fill:#e0e0e0"></path><path d="M96.55,95.87a6.31,6.31,0,0,1,.26,2.5,6.31,6.31,0,0,1-.26,2.5,6.11,6.11,0,0,1-.26-2.5A6.11,6.11,0,0,1,96.55,95.87Z" style="fill:#e0e0e0"></path><path d="M96.55,85.87a6.31,6.31,0,0,1,.26,2.5,6.31,6.31,0,0,1-.26,2.5,6.11,6.11,0,0,1-.26-2.5A6.11,6.11,0,0,1,96.55,85.87Z" style="fill:#e0e0e0"></path><path d="M96.55,75.87a6.31,6.31,0,0,1,.26,2.5,6.31,6.31,0,0,1-.26,2.5,6.11,6.11,0,0,1-.26-2.5A6.11,6.11,0,0,1,96.55,75.87Z" style="fill:#e0e0e0"></path><path d="M96.55,65.87a6.31,6.31,0,0,1,.26,2.5,6.31,6.31,0,0,1-.26,2.5,6.11,6.11,0,0,1-.26-2.5A6.11,6.11,0,0,1,96.55,65.87Z" style="fill:#e0e0e0"></path><path d="M96.55,55.87a6.31,6.31,0,0,1,.26,2.5,6.31,6.31,0,0,1-.26,2.5,6.11,6.11,0,0,1-.26-2.5A6.11,6.11,0,0,1,96.55,55.87Z" style="fill:#e0e0e0"></path><path d="M106.51,55.83a6.31,6.31,0,0,1-2.5.26,6.31,6.31,0,0,1-2.5-.26,6.31,6.31,0,0,1,2.5-.26A6.31,6.31,0,0,1,106.51,55.83Z" style="fill:#e0e0e0"></path><path d="M116.51,55.83a6.31,6.31,0,0,1-2.5.26,6.31,6.31,0,0,1-2.5-.26,6.31,6.31,0,0,1,2.5-.26A6.31,6.31,0,0,1,116.51,55.83Z" style="fill:#e0e0e0"></path><path d="M126.51,55.83a12.15,12.15,0,0,1-5,0,12.15,12.15,0,0,1,5,0Z" style="fill:#e0e0e0"></path><path d="M136.51,55.83a12.15,12.15,0,0,1-5,0,12.15,12.15,0,0,1,5,0Z" style="fill:#e0e0e0"></path><path d="M146.51,55.83a12.15,12.15,0,0,1-5,0,12.15,12.15,0,0,1,5,0Z" style="fill:#e0e0e0"></path><path d="M156.51,55.83a12.15,12.15,0,0,1-5,0,12.15,12.15,0,0,1,5,0Z" style="fill:#e0e0e0"></path><path d="M158.4,63.93a6.31,6.31,0,0,1-.26-2.5,6.31,6.31,0,0,1,.26-2.5,6.11,6.11,0,0,1,.26,2.5A6.11,6.11,0,0,1,158.4,63.93Z" style="fill:#e0e0e0"></path><path d="M158.4,73.93a6.31,6.31,0,0,1-.26-2.5,6.31,6.31,0,0,1,.26-2.5,6.11,6.11,0,0,1,.26,2.5A6.11,6.11,0,0,1,158.4,73.93Z" style="fill:#e0e0e0"></path><path d="M158.4,83.93a6.31,6.31,0,0,1-.26-2.5,6.31,6.31,0,0,1,.26-2.5,6.11,6.11,0,0,1,.26,2.5A6.11,6.11,0,0,1,158.4,83.93Z" style="fill:#e0e0e0"></path><path d="M158.4,93.93a6.31,6.31,0,0,1-.26-2.5,6.31,6.31,0,0,1,.26-2.5,6.11,6.11,0,0,1,.26,2.5A6.11,6.11,0,0,1,158.4,93.93Z" style="fill:#e0e0e0"></path><path d="M158.4,103.93a6.31,6.31,0,0,1-.26-2.5,6.31,6.31,0,0,1,.26-2.5,6.11,6.11,0,0,1,.26,2.5A6.11,6.11,0,0,1,158.4,103.93Z" style="fill:#e0e0e0"></path><path d="M161.53,59h-6.25V52.71h6.25Zm-5.25-1h4.25V53.71h-4.25Z" style="fill:#e0e0e0"></path><path d="M99.67,59H93.43V52.71h6.24Zm-5.24-1h4.24V53.71H94.43Z" style="fill:#e0e0e0"></path><path d="M99.67,112.6H93.43v-6.24h6.24Zm-5.24-1h4.24v-4.24H94.43Z" style="fill:#e0e0e0"></path><path d="M161.45,112.6h-6.24v-6.24h6.24Zm-5.24-1h4.24v-4.24h-4.24Z" style="fill:#e0e0e0"></path><path d="M430,214.58a21.9,21.9,0,0,1,4.72-.26H435l-.26.26a20,20,0,0,1,.26-4.45,20,20,0,0,1,.26,4.45.26.26,0,0,1-.26.26h-.28A21.16,21.16,0,0,1,430,214.58Z" style="fill:#e6e6e6"></path><path d="M420,214.58a12.15,12.15,0,0,1,5,0,12.15,12.15,0,0,1-5,0Z" style="fill:#e6e6e6"></path><path d="M410,214.58a12.15,12.15,0,0,1,5,0,12.15,12.15,0,0,1-5,0Z" style="fill:#e6e6e6"></path><path d="M400,214.58a12.15,12.15,0,0,1,5,0,12.15,12.15,0,0,1-5,0Z" style="fill:#e6e6e6"></path><path d="M390,214.58a12.15,12.15,0,0,1,5,0,12.15,12.15,0,0,1-5,0Z" style="fill:#e6e6e6"></path><path d="M380,214.58a12.15,12.15,0,0,1,5,0,12.15,12.15,0,0,1-5,0Z" style="fill:#e6e6e6"></path><path d="M374.63,209.93a6.11,6.11,0,0,1,.26,2.5,13.66,13.66,0,0,1-.13,2.15l-.13-.13c.23,0,.35.09.35.13s-.12.1-.35.13a.1.1,0,0,1-.12-.08v0a13.66,13.66,0,0,1-.13-2.15A6.31,6.31,0,0,1,374.63,209.93Z" style="fill:#e6e6e6"></path><path d="M374.63,199.93a12.15,12.15,0,0,1,0,5,12.15,12.15,0,0,1,0-5Z" style="fill:#e6e6e6"></path><path d="M374.63,189.93a12.15,12.15,0,0,1,0,5,12.15,12.15,0,0,1,0-5Z" style="fill:#e6e6e6"></path><path d="M374.63,179.93a12.15,12.15,0,0,1,0,5,12.15,12.15,0,0,1,0-5Z" style="fill:#e6e6e6"></path><path d="M374.63,169.93a12.15,12.15,0,0,1,0,5,12.15,12.15,0,0,1,0-5Z" style="fill:#e6e6e6"></path><path d="M377.41,162.7a6.11,6.11,0,0,1-2.5.26h-.28l.26-.26a5.14,5.14,0,0,1-.26,2.23,5.52,5.52,0,0,1-.26-2.23.26.26,0,0,1,.26-.26h.28A6.31,6.31,0,0,1,377.41,162.7Z" style="fill:#e6e6e6"></path><path d="M387.41,162.7a12.15,12.15,0,0,1-5,0,12.15,12.15,0,0,1,5,0Z" style="fill:#e6e6e6"></path><path d="M397.41,162.7a12.15,12.15,0,0,1-5,0,12.15,12.15,0,0,1,5,0Z" style="fill:#e6e6e6"></path><path d="M407.41,162.7a12.15,12.15,0,0,1-5,0,12.15,12.15,0,0,1,5,0Z" style="fill:#e6e6e6"></path><path d="M417.41,162.7a12.15,12.15,0,0,1-5,0,12.15,12.15,0,0,1,5,0Z" style="fill:#e6e6e6"></path><path d="M427.41,162.7a12.15,12.15,0,0,1-5,0,12.15,12.15,0,0,1,5,0Z" style="fill:#e6e6e6"></path><path d="M435,165.13a5.94,5.94,0,0,1-.26-2.43l.26.26h-.07a6.11,6.11,0,0,1-2.5-.26,6.31,6.31,0,0,1,2.5-.26H435a.26.26,0,0,1,.26.26h0A6.15,6.15,0,0,1,435,165.13Z" style="fill:#e6e6e6"></path><path d="M435,175.13a12.15,12.15,0,0,1,0-5,12.15,12.15,0,0,1,0,5Z" style="fill:#e6e6e6"></path><path d="M435,185.13a12.15,12.15,0,0,1,0-5,12.15,12.15,0,0,1,0,5Z" style="fill:#e6e6e6"></path><path d="M435,195.13a12.15,12.15,0,0,1,0-5,12.15,12.15,0,0,1,0,5Z" style="fill:#e6e6e6"></path><path d="M435,205.13a12.15,12.15,0,0,1,0-5,12.15,12.15,0,0,1,0,5Z" style="fill:#e6e6e6"></path><path d="M438,165.76h-6.11v-6.11H438Zm-5.11-1H437v-4.11h-4.11Z" style="fill:#e6e6e6"></path><path d="M377.69,165.76h-6.11v-6.11h6.11Zm-5.11-1h4.11v-4.11h-4.11Z" style="fill:#e6e6e6"></path><path d="M377.69,218.1h-6.11V212h6.11Zm-5.11-1h4.11V213h-4.11Z" style="fill:#e6e6e6"></path><path d="M438,218.1h-6.11V212H438Zm-5.11-1H437V213h-4.11Z" style="fill:#e6e6e6"></path><path d="M39.53,169.13h75s-7.38-8.32-17.12-8.32c-6.13,0-10.65,3.7-15.39.49-2.51-1.71-9.37-10.17-22.55-8.64S39.53,169.13,39.53,169.13Z" style="fill:#ebebeb"></path><path d="M367.27,125.23h47.29S409.9,120,403.76,120c-3.86,0-6.71,2.33-9.7.31-1.59-1.08-5.92-6.42-14.23-5.45S367.27,125.23,367.27,125.23Z" style="fill:#e0e0e0"></path><path d="M198,82.65h50.52S243.5,77,236.94,77c-4.13,0-7.18,2.5-10.37.33-1.7-1.14-6.32-6.85-15.2-5.82S198,82.65,198,82.65Z" style="fill:#e6e6e6"></path></g><g id="freepik--Plant--inject-84"><path d="M391,184.91s-6.72-2.78-11.22,12.86-5.66,24.38-5.66,24.38-1.34,3.35-3.77,1.8-6.3-6.54-9.59-4.87-3.82,6-2,11.78,5.39,18.62,5.7,19.78,0,3-1.84,2.18-13.07-9.31-16.79-3.73,4,20.87,4.86,22.56.61,2.51-.15,3.12-4.27-2.62-7.57-4.91-7.52-4.37-9.4-1-.31,15.69,15.07,33.18l7.65,7.64,10.53-2.65c22.2-7.05,29.88-16.77,30-20.65s-4.55-4.28-8.55-4-8.68,1.21-9,.3-.08-1.72,1.49-2.75,16.11-10.11,15.8-16.81-14.34-5.21-16.31-5.47-1.31-2-.45-2.82,10.54-10,15.1-14,6.4-7.87,4.37-11.12-7.85-.85-10.72-.77-2.3-3.49-2.3-3.49,3.52-8.09,7.73-23.8-3.15-16.79-3.15-16.79" style="fill:#FF725E"></path><path d="M386.92,198.91a1.45,1.45,0,0,1-.06.34l-.24,1c-.22.89-.54,2.14-.95,3.73-.83,3.24-2.08,7.91-3.64,13.68-3.13,11.53-7.59,27.43-12.59,45S360,296,356.71,307.52l-3.81,13.63c-.44,1.59-.79,2.83-1,3.71-.12.4-.21.71-.29,1a1.41,1.41,0,0,1-.11.32,1.45,1.45,0,0,1,.06-.34l.24-1c.22-.89.54-2.14.95-3.73.83-3.24,2.08-7.91,3.64-13.68,3.13-11.53,7.59-27.43,12.59-45s9.47-33.4,12.73-44.92l3.81-13.63c.44-1.59.79-2.83,1-3.71.12-.4.21-.71.29-1A1.41,1.41,0,0,1,386.92,198.91Z" style="fill:#263238"></path><path d="M365.88,226.27a14.38,14.38,0,0,1,1.46,2.53c.82,1.6,1.89,3.84,3,6.33l2.83,6.42a21.33,21.33,0,0,1,1.12,2.69,14,14,0,0,1-1.45-2.53c-.81-1.61-1.85-3.86-3-6.36L367,229A19.59,19.59,0,0,1,365.88,226.27Z" style="fill:#263238"></path><path d="M375.32,244.24c-.07-.13,4.44-2.56,10.07-5.43s10.25-5.09,10.32-5-4.45,2.56-10.08,5.43S375.38,244.36,375.32,244.24Z" style="fill:#263238"></path><path d="M366.43,270.82a18.94,18.94,0,0,1,2.9-.65c1.79-.37,4.27-.86,7-1.5s5.16-1.27,6.93-1.75a19.53,19.53,0,0,1,2.89-.69,15,15,0,0,1-2.79,1c-1.74.56-4.18,1.27-6.91,1.9s-5.24,1.08-7.05,1.35A15.3,15.3,0,0,1,366.43,270.82Z" style="fill:#263238"></path><path d="M354.32,256.45a15.53,15.53,0,0,1,1.93,2c1.15,1.25,2.7,3,4.39,4.95s3.2,3.74,4.27,5.06a13.71,13.71,0,0,1,1.65,2.19,14.88,14.88,0,0,1-1.93-1.95c-1.14-1.25-2.69-3-4.39-5s-3.19-3.74-4.27-5.05A14.27,14.27,0,0,1,354.32,256.45Z" style="fill:#263238"></path><path d="M343.49,278.93a23,23,0,0,1,2.46,2.51c1.47,1.6,3.48,3.83,5.67,6.31s4.15,4.76,5.55,6.42a23.66,23.66,0,0,1,2.19,2.75,22.42,22.42,0,0,1-2.47-2.51c-1.47-1.6-3.47-3.83-5.66-6.31s-4.15-4.76-5.55-6.42A24.73,24.73,0,0,1,343.49,278.93Z" style="fill:#263238"></path><path d="M359.1,296.38a31,31,0,0,1,3.65-.93c2.26-.54,5.38-1.27,8.81-2.17s6.51-1.78,8.74-2.43l2.65-.75a4.36,4.36,0,0,1,1-.22,3.52,3.52,0,0,1-.93.41c-.6.23-1.49.55-2.6.91-2.21.74-5.28,1.68-8.72,2.58s-6.58,1.58-8.87,2c-1.14.22-2.07.38-2.71.48A3.65,3.65,0,0,1,359.1,296.38Z" style="fill:#263238"></path></g><g id="freepik--Building--inject-84"><path d="M132.21,405.51a12.15,12.15,0,0,1,5,0,12.15,12.15,0,0,1-5,0Z" style="fill:#263238"></path><path d="M122.21,405.51a6.11,6.11,0,0,1,2.5-.26,6.11,6.11,0,0,1,2.5.26,12.15,12.15,0,0,1-5,0Z" style="fill:#263238"></path><path d="M112.21,405.51a6.11,6.11,0,0,1,2.5-.26,6.11,6.11,0,0,1,2.5.26,6.31,6.31,0,0,1-2.5.26A6.31,6.31,0,0,1,112.21,405.51Z" style="fill:#263238"></path><path d="M102.21,405.51a6.11,6.11,0,0,1,2.5-.26,6.11,6.11,0,0,1,2.5.26,6.31,6.31,0,0,1-2.5.26A6.31,6.31,0,0,1,102.21,405.51Z" style="fill:#263238"></path><path d="M92.21,405.51a6.11,6.11,0,0,1,2.5-.26,6.11,6.11,0,0,1,2.5.26,6.31,6.31,0,0,1-2.5.26A6.31,6.31,0,0,1,92.21,405.51Z" style="fill:#263238"></path><path d="M91.8,395.92a12.15,12.15,0,0,1,0,5,12.15,12.15,0,0,1,0-5Z" style="fill:#263238"></path><path d="M91.8,385.92a12.15,12.15,0,0,1,0,5,12.15,12.15,0,0,1,0-5Z" style="fill:#263238"></path><path d="M91.8,375.92a12.15,12.15,0,0,1,0,5,12.15,12.15,0,0,1,0-5Z" style="fill:#263238"></path><path d="M91.8,365.92a12.15,12.15,0,0,1,0,5,12.15,12.15,0,0,1,0-5Z" style="fill:#263238"></path><path d="M91.8,355.92a12.15,12.15,0,0,1,0,5,12.15,12.15,0,0,1,0-5Z" style="fill:#263238"></path><path d="M91.8,345.92a12.15,12.15,0,0,1,0,5,12.15,12.15,0,0,1,0-5Z" style="fill:#263238"></path><path d="M91.8,335.92a12.15,12.15,0,0,1,0,5,12.15,12.15,0,0,1,0-5Z" style="fill:#263238"></path><path d="M91.8,325.92a12.15,12.15,0,0,1,0,5,12.15,12.15,0,0,1,0-5Z" style="fill:#263238"></path><path d="M91.8,315.92a12.15,12.15,0,0,1,0,5,12.15,12.15,0,0,1,0-5Z" style="fill:#263238"></path><path d="M91.8,305.92a12.15,12.15,0,0,1,0,5,12.15,12.15,0,0,1,0-5Z" style="fill:#263238"></path><path d="M91.8,295.92a12.15,12.15,0,0,1,0,5,12.15,12.15,0,0,1,0-5Z" style="fill:#263238"></path><path d="M91.8,285.92a12.15,12.15,0,0,1,0,5,12.15,12.15,0,0,1,0-5Z" style="fill:#263238"></path><path d="M91.8,275.92a12.15,12.15,0,0,1,0,5,12.15,12.15,0,0,1,0-5Z" style="fill:#263238"></path><path d="M91.8,265.92a12.15,12.15,0,0,1,0,5,12.15,12.15,0,0,1,0-5Z" style="fill:#263238"></path><path d="M91.8,255.92a12.15,12.15,0,0,1,0,5,12.15,12.15,0,0,1,0-5Z" style="fill:#263238"></path><path d="M91.8,245.92a12.15,12.15,0,0,1,0,5,12.15,12.15,0,0,1,0-5Z" style="fill:#263238"></path><path d="M91.8,235.92a12.15,12.15,0,0,1,0,5,12.15,12.15,0,0,1,0-5Z" style="fill:#263238"></path><path d="M91.8,225.92a12.15,12.15,0,0,1,0,5,12.15,12.15,0,0,1,0-5Z" style="fill:#263238"></path><path d="M91.8,215.92a12.15,12.15,0,0,1,0,5,12.15,12.15,0,0,1,0-5Z" style="fill:#263238"></path><path d="M91.8,205.92a12.15,12.15,0,0,1,0,5,12.15,12.15,0,0,1,0-5Z" style="fill:#263238"></path><path d="M91.8,195.92a12.15,12.15,0,0,1,0,5,12.15,12.15,0,0,1,0-5Z" style="fill:#263238"></path><path d="M98.67,192.79a6.31,6.31,0,0,1-2.5.26,6.31,6.31,0,0,1-2.5-.26,6.31,6.31,0,0,1,2.5-.26A6.31,6.31,0,0,1,98.67,192.79Z" style="fill:#263238"></path><path d="M108.67,192.79a6.31,6.31,0,0,1-2.5.26,6.31,6.31,0,0,1-2.5-.26,6.31,6.31,0,0,1,2.5-.26A6.31,6.31,0,0,1,108.67,192.79Z" style="fill:#263238"></path><path d="M118.67,192.79a6.31,6.31,0,0,1-2.5.26,6.31,6.31,0,0,1-2.5-.26,6.31,6.31,0,0,1,2.5-.26A6.31,6.31,0,0,1,118.67,192.79Z" style="fill:#263238"></path><path d="M128.67,192.79a12.15,12.15,0,0,1-5,0,12.15,12.15,0,0,1,5,0Z" style="fill:#263238"></path><path d="M137.21,194.25c-.11,0-.2-.6-.24-1.46l.24.24-1,0a6.31,6.31,0,0,1-2.5-.26,6.31,6.31,0,0,1,2.5-.26l1,0h0a.22.22,0,0,1,.21.24C137.4,193.65,137.31,194.25,137.21,194.25Z" style="fill:#263238"></path><path d="M137.21,204.25a12.15,12.15,0,0,1,0-5,12.15,12.15,0,0,1,0,5Z" style="fill:#263238"></path><path d="M137.21,214.25a12.15,12.15,0,0,1,0-5,12.15,12.15,0,0,1,0,5Z" style="fill:#263238"></path><path d="M137.21,224.25a12.15,12.15,0,0,1,0-5,12.15,12.15,0,0,1,0,5Z" style="fill:#263238"></path><path d="M137.21,234.25a12.15,12.15,0,0,1,0-5,12.15,12.15,0,0,1,0,5Z" style="fill:#263238"></path><path d="M137.21,244.25a12.15,12.15,0,0,1,0-5,12.15,12.15,0,0,1,0,5Z" style="fill:#263238"></path><path d="M137.21,254.25a12.15,12.15,0,0,1,0-5,12.15,12.15,0,0,1,0,5Z" style="fill:#263238"></path><path d="M137.21,264.25a12.15,12.15,0,0,1,0-5,12.15,12.15,0,0,1,0,5Z" style="fill:#263238"></path><path d="M137.21,274.25a12.15,12.15,0,0,1,0-5,12.15,12.15,0,0,1,0,5Z" style="fill:#263238"></path><path d="M137.21,284.25a12.15,12.15,0,0,1,0-5,12.15,12.15,0,0,1,0,5Z" style="fill:#263238"></path><path d="M137.21,294.25a12.15,12.15,0,0,1,0-5,12.15,12.15,0,0,1,0,5Z" style="fill:#263238"></path><path d="M137.21,304.25a12.15,12.15,0,0,1,0-5,12.15,12.15,0,0,1,0,5Z" style="fill:#263238"></path><path d="M137.21,314.25a12.15,12.15,0,0,1,0-5,12.15,12.15,0,0,1,0,5Z" style="fill:#263238"></path><path d="M137.21,324.25a12.15,12.15,0,0,1,0-5,12.15,12.15,0,0,1,0,5Z" style="fill:#263238"></path><path d="M137.21,334.25a12.15,12.15,0,0,1,0-5,12.15,12.15,0,0,1,0,5Z" style="fill:#263238"></path><path d="M137.21,344.25a12.15,12.15,0,0,1,0-5,12.15,12.15,0,0,1,0,5Z" style="fill:#263238"></path><path d="M137.21,354.25a12.15,12.15,0,0,1,0-5,12.15,12.15,0,0,1,0,5Z" style="fill:#263238"></path><path d="M137.21,364.25a12.15,12.15,0,0,1,0-5,12.15,12.15,0,0,1,0,5Z" style="fill:#263238"></path><path d="M137.21,374.25a12.15,12.15,0,0,1,0-5,12.15,12.15,0,0,1,0,5Z" style="fill:#263238"></path><path d="M137.21,384.25a12.15,12.15,0,0,1,0-5,12.15,12.15,0,0,1,0,5Z" style="fill:#263238"></path><path d="M137.21,394.25a12.15,12.15,0,0,1,0-5,12.15,12.15,0,0,1,0,5Z" style="fill:#263238"></path><path d="M137.21,404.25a12.15,12.15,0,0,1,0-5,12.15,12.15,0,0,1,0,5Z" style="fill:#263238"></path><path d="M305.57,110.18c-.1.1-1-.61-1.95-1.59s-1.69-1.85-1.59-2,1,.61,2,1.59S305.67,110.08,305.57,110.18Z" style="fill:#263238"></path><path d="M312.64,117.25c-.1.1-1-.61-1.95-1.58s-1.69-1.85-1.58-2,1,.61,1.95,1.59S312.74,117.15,312.64,117.25Z" style="fill:#263238"></path><path d="M319.71,124.32c-.1.1-1-.61-1.95-1.58s-1.69-1.85-1.58-2,1,.61,1.95,1.59S319.81,124.22,319.71,124.32Z" style="fill:#263238"></path><path d="M324.23,132.45A6.31,6.31,0,0,1,324,130c0-.4,0-.78,0-1.11l.06.16c-.55-.61-.88-1.07-.81-1.14s.53.26,1.14.81a.17.17,0,0,1,.07.14v0c0,.33,0,.71,0,1.11A6.31,6.31,0,0,1,324.23,132.45Z" style="fill:#263238"></path><path d="M324.23,142.45a12.15,12.15,0,0,1,0-5,12.15,12.15,0,0,1,0,5Z" style="fill:#263238"></path><path d="M324.23,152.45a12.15,12.15,0,0,1,0-5,12.15,12.15,0,0,1,0,5Z" style="fill:#263238"></path><path d="M324.23,162.45a12.15,12.15,0,0,1,0-5,12.15,12.15,0,0,1,0,5Z" style="fill:#263238"></path><path d="M324.23,172.45a12.15,12.15,0,0,1,0-5,12.15,12.15,0,0,1,0,5Z" style="fill:#263238"></path><path d="M324.23,182.45a12.15,12.15,0,0,1,0-5,12.15,12.15,0,0,1,0,5Z" style="fill:#263238"></path><path d="M324.23,192.45a12.15,12.15,0,0,1,0-5,12.15,12.15,0,0,1,0,5Z" style="fill:#263238"></path><path d="M324.23,202.45a12.15,12.15,0,0,1,0-5,12.15,12.15,0,0,1,0,5Z" style="fill:#263238"></path><path d="M324.23,212.45a12.15,12.15,0,0,1,0-5,12.15,12.15,0,0,1,0,5Z" style="fill:#263238"></path><path d="M324.23,222.45a12.15,12.15,0,0,1,0-5,12.15,12.15,0,0,1,0,5Z" style="fill:#263238"></path><path d="M324.23,232.45a12.15,12.15,0,0,1,0-5,12.15,12.15,0,0,1,0,5Z" style="fill:#263238"></path><path d="M324.23,242.45a12.15,12.15,0,0,1,0-5,12.15,12.15,0,0,1,0,5Z" style="fill:#263238"></path><path d="M324.23,252.45a12.15,12.15,0,0,1,0-5,12.15,12.15,0,0,1,0,5Z" style="fill:#263238"></path><path d="M324.23,262.45a12.15,12.15,0,0,1,0-5,12.15,12.15,0,0,1,0,5Z" style="fill:#263238"></path><path d="M324.23,272.45a12.15,12.15,0,0,1,0-5,12.15,12.15,0,0,1,0,5Z" style="fill:#263238"></path><path d="M324.23,282.45a12.15,12.15,0,0,1,0-5,12.15,12.15,0,0,1,0,5Z" style="fill:#263238"></path><path d="M324.23,292.45a12.15,12.15,0,0,1,0-5,12.15,12.15,0,0,1,0,5Z" style="fill:#263238"></path><path d="M324.23,302.45a12.15,12.15,0,0,1,0-5,12.15,12.15,0,0,1,0,5Z" style="fill:#263238"></path><path d="M324.23,312.45a12.15,12.15,0,0,1,0-5,12.15,12.15,0,0,1,0,5Z" style="fill:#263238"></path><path d="M324.23,322.45a12.15,12.15,0,0,1,0-5,12.15,12.15,0,0,1,0,5Z" style="fill:#263238"></path><path d="M324.23,332.45a12.15,12.15,0,0,1,0-5,12.15,12.15,0,0,1,0,5Z" style="fill:#263238"></path><path d="M324.23,342.45a12.15,12.15,0,0,1,0-5,12.15,12.15,0,0,1,0,5Z" style="fill:#263238"></path><path d="M324.23,352.45a12.15,12.15,0,0,1,0-5,12.15,12.15,0,0,1,0,5Z" style="fill:#263238"></path><path d="M324.23,362.45a12.15,12.15,0,0,1,0-5,12.15,12.15,0,0,1,0,5Z" style="fill:#263238"></path><path d="M324.23,372.45a12.15,12.15,0,0,1,0-5,12.15,12.15,0,0,1,0,5Z" style="fill:#263238"></path><path d="M324.23,382.45a12.15,12.15,0,0,1,0-5,12.15,12.15,0,0,1,0,5Z" style="fill:#263238"></path><path d="M324.23,392.45a12.15,12.15,0,0,1,0-5,12.15,12.15,0,0,1,0,5Z" style="fill:#263238"></path><path d="M324.23,402.45a12.15,12.15,0,0,1,0-5,12.15,12.15,0,0,1,0,5Z" style="fill:#263238"></path><path d="M316,404.22a12.15,12.15,0,0,1,5,0,12.15,12.15,0,0,1-5,0Z" style="fill:#263238"></path><path d="M306,404.22a12.15,12.15,0,0,1,5,0,12.15,12.15,0,0,1-5,0Z" style="fill:#263238"></path><path d="M302,398.18a12.15,12.15,0,0,1,0,5,12.15,12.15,0,0,1,0-5Z" style="fill:#263238"></path><path d="M302,388.18a12.15,12.15,0,0,1,0,5,12.15,12.15,0,0,1,0-5Z" style="fill:#263238"></path><path d="M302,378.18a12.15,12.15,0,0,1,0,5,12.15,12.15,0,0,1,0-5Z" style="fill:#263238"></path><path d="M302,368.18a12.15,12.15,0,0,1,0,5,12.15,12.15,0,0,1,0-5Z" style="fill:#263238"></path><path d="M302,358.18a12.15,12.15,0,0,1,0,5,12.15,12.15,0,0,1,0-5Z" style="fill:#263238"></path><path d="M302,348.18a12.15,12.15,0,0,1,0,5,12.15,12.15,0,0,1,0-5Z" style="fill:#263238"></path><path d="M302,338.18a12.15,12.15,0,0,1,0,5,12.15,12.15,0,0,1,0-5Z" style="fill:#263238"></path><path d="M302,328.18a12.15,12.15,0,0,1,0,5,12.15,12.15,0,0,1,0-5Z" style="fill:#263238"></path><path d="M302,318.18a12.15,12.15,0,0,1,0,5,12.15,12.15,0,0,1,0-5Z" style="fill:#263238"></path><path d="M302,308.18a12.15,12.15,0,0,1,0,5,12.15,12.15,0,0,1,0-5Z" style="fill:#263238"></path><path d="M302,298.18a12.15,12.15,0,0,1,0,5,12.15,12.15,0,0,1,0-5Z" style="fill:#263238"></path><path d="M302,288.18a12.15,12.15,0,0,1,0,5,12.15,12.15,0,0,1,0-5Z" style="fill:#263238"></path><path d="M302,278.18a12.15,12.15,0,0,1,0,5,12.15,12.15,0,0,1,0-5Z" style="fill:#263238"></path><path d="M302,268.18a12.15,12.15,0,0,1,0,5,12.15,12.15,0,0,1,0-5Z" style="fill:#263238"></path><path d="M302,258.18a12.15,12.15,0,0,1,0,5,12.15,12.15,0,0,1,0-5Z" style="fill:#263238"></path><path d="M302,248.18a12.15,12.15,0,0,1,0,5,12.15,12.15,0,0,1,0-5Z" style="fill:#263238"></path><path d="M302,238.18a12.15,12.15,0,0,1,0,5,12.15,12.15,0,0,1,0-5Z" style="fill:#263238"></path><path d="M302,228.18a12.15,12.15,0,0,1,0,5,12.15,12.15,0,0,1,0-5Z" style="fill:#263238"></path><path d="M302,218.18a12.15,12.15,0,0,1,0,5,12.15,12.15,0,0,1,0-5Z" style="fill:#263238"></path><path d="M302,208.18a12.15,12.15,0,0,1,0,5,12.15,12.15,0,0,1,0-5Z" style="fill:#263238"></path><path d="M302,198.18a12.15,12.15,0,0,1,0,5,12.15,12.15,0,0,1,0-5Z" style="fill:#263238"></path><path d="M302,188.18a12.15,12.15,0,0,1,0,5,12.15,12.15,0,0,1,0-5Z" style="fill:#263238"></path><path d="M302,178.18a12.15,12.15,0,0,1,0,5,12.15,12.15,0,0,1,0-5Z" style="fill:#263238"></path><path d="M302,168.18a12.15,12.15,0,0,1,0,5,12.15,12.15,0,0,1,0-5Z" style="fill:#263238"></path><path d="M302,158.18a12.15,12.15,0,0,1,0,5,12.15,12.15,0,0,1,0-5Z" style="fill:#263238"></path><path d="M302,148.18a12.15,12.15,0,0,1,0,5,12.15,12.15,0,0,1,0-5Z" style="fill:#263238"></path><path d="M302,138.18a12.15,12.15,0,0,1,0,5,12.15,12.15,0,0,1,0-5Z" style="fill:#263238"></path><path d="M302,128.18a12.15,12.15,0,0,1,0,5,12.15,12.15,0,0,1,0-5Z" style="fill:#263238"></path><path d="M302,118.18a6.11,6.11,0,0,1,.26,2.5,6.11,6.11,0,0,1-.26,2.5,6.31,6.31,0,0,1-.26-2.5A6.31,6.31,0,0,1,302,118.18Z" style="fill:#263238"></path><path d="M302,108.18a6.11,6.11,0,0,1,.26,2.5,6.11,6.11,0,0,1-.26,2.5,6.31,6.31,0,0,1-.26-2.5A6.31,6.31,0,0,1,302,108.18Z" style="fill:#263238"></path><path d="M232.23,401.72a6.11,6.11,0,0,1,.26,2.5l-.26-.26h.51l.47,0,.79,0c.45.05.73.12.73.19s-.28.14-.73.18c-.23,0-.49.05-.79.06h-1l-.26-.26A6.31,6.31,0,0,1,232.23,401.72Z" style="fill:#263238"></path><path d="M232.23,391.75a12.05,12.05,0,0,1,0,5,12.05,12.05,0,0,1,0-5Z" style="fill:#263238"></path><path d="M232.23,381.78a12.1,12.1,0,0,1,0,5,12.1,12.1,0,0,1,0-5Z" style="fill:#263238"></path><path d="M232.23,371.81a12.1,12.1,0,0,1,0,5,12.1,12.1,0,0,1,0-5Z" style="fill:#263238"></path><path d="M232.23,361.84a12.1,12.1,0,0,1,0,5,12.1,12.1,0,0,1,0-5Z" style="fill:#263238"></path><path d="M232.23,351.88a12.05,12.05,0,0,1,0,5,12.05,12.05,0,0,1,0-5Z" style="fill:#263238"></path><path d="M232.23,341.91a12.05,12.05,0,0,1,0,5,12.05,12.05,0,0,1,0-5Z" style="fill:#263238"></path><path d="M232.23,331.94a12.05,12.05,0,0,1,0,5,12.05,12.05,0,0,1,0-5Z" style="fill:#263238"></path><path d="M232.23,322a12.05,12.05,0,0,1,0,5,12.05,12.05,0,0,1,0-5Z" style="fill:#263238"></path><path d="M232.23,312a12.05,12.05,0,0,1,0,5,12.05,12.05,0,0,1,0-5Z" style="fill:#263238"></path><path d="M232.23,302a12.1,12.1,0,0,1,0,5,12.1,12.1,0,0,1,0-5Z" style="fill:#263238"></path><path d="M232.23,292.06a12.1,12.1,0,0,1,0,5,12.1,12.1,0,0,1,0-5Z" style="fill:#263238"></path><path d="M232.23,282.09a12.1,12.1,0,0,1,0,5,12.1,12.1,0,0,1,0-5Z" style="fill:#263238"></path><path d="M232.23,272.13a12.05,12.05,0,0,1,0,5,12.05,12.05,0,0,1,0-5Z" style="fill:#263238"></path><path d="M232.23,262.16a12.05,12.05,0,0,1,0,5,12.05,12.05,0,0,1,0-5Z" style="fill:#263238"></path><path d="M232.23,252.19a12.05,12.05,0,0,1,0,5,12.05,12.05,0,0,1,0-5Z" style="fill:#263238"></path><path d="M232.23,242.22a12.05,12.05,0,0,1,0,5,12.05,12.05,0,0,1,0-5Z" style="fill:#263238"></path><path d="M232.23,232.25a12.1,12.1,0,0,1,0,5,12.1,12.1,0,0,1,0-5Z" style="fill:#263238"></path><path d="M232.23,222.28a12.1,12.1,0,0,1,0,5,12.1,12.1,0,0,1,0-5Z" style="fill:#263238"></path><path d="M232.23,212.31a12.1,12.1,0,0,1,0,5,12.1,12.1,0,0,1,0-5Z" style="fill:#263238"></path><path d="M232.23,202.35a12.05,12.05,0,0,1,0,5,12.05,12.05,0,0,1,0-5Z" style="fill:#263238"></path><path d="M232.23,192.38a12.05,12.05,0,0,1,0,5,12.05,12.05,0,0,1,0-5Z" style="fill:#263238"></path><path d="M232.23,182.41a12.05,12.05,0,0,1,0,5,12.05,12.05,0,0,1,0-5Z" style="fill:#263238"></path><path d="M232.23,172.44a12.05,12.05,0,0,1,0,5,12.05,12.05,0,0,1,0-5Z" style="fill:#263238"></path><path d="M232.23,162.47a12.1,12.1,0,0,1,0,5,12.1,12.1,0,0,1,0-5Z" style="fill:#263238"></path><path d="M232.23,152.5a12.1,12.1,0,0,1,0,5,12.1,12.1,0,0,1,0-5Z" style="fill:#263238"></path><path d="M232.23,142.53a12.1,12.1,0,0,1,0,5,12.1,12.1,0,0,1,0-5Z" style="fill:#263238"></path><path d="M232.23,132.56a12.1,12.1,0,0,1,0,5,12.1,12.1,0,0,1,0-5Z" style="fill:#263238"></path><path d="M232.23,122.6a6,6,0,0,1,.26,2.49,6,6,0,0,1-.26,2.49,12.05,12.05,0,0,1,0-5Z" style="fill:#263238"></path><path d="M232.23,112.63a6,6,0,0,1,.26,2.49,6,6,0,0,1-.26,2.49,6.24,6.24,0,0,1-.26-2.49A6.24,6.24,0,0,1,232.23,112.63Z" style="fill:#263238"></path><path d="M232.23,102.66a6,6,0,0,1,.26,2.49,6,6,0,0,1-.26,2.49,6.24,6.24,0,0,1-.26-2.49A6.24,6.24,0,0,1,232.23,102.66Z" style="fill:#263238"></path><path d="M232.23,92.69a6.08,6.08,0,0,1,.26,2.49,6,6,0,0,1-.26,2.49,6.24,6.24,0,0,1-.26-2.49A6.28,6.28,0,0,1,232.23,92.69Z" style="fill:#263238"></path><path d="M232.23,82.72a6.08,6.08,0,0,1,.26,2.49,6.11,6.11,0,0,1-.26,2.5,6.31,6.31,0,0,1-.26-2.5A6.28,6.28,0,0,1,232.23,82.72Z" style="fill:#263238"></path><path d="M232.23,72.75a6.11,6.11,0,0,1,.26,2.5,6.08,6.08,0,0,1-.26,2.49,6.28,6.28,0,0,1-.26-2.49A6.31,6.31,0,0,1,232.23,72.75Z" style="fill:#263238"></path><path d="M232.23,62.78a6.11,6.11,0,0,1,.26,2.5,6.08,6.08,0,0,1-.26,2.49,6.28,6.28,0,0,1-.26-2.49A6.31,6.31,0,0,1,232.23,62.78Z" style="fill:#263238"></path><path d="M232.23,52.82a6,6,0,0,1,.26,2.49,6.08,6.08,0,0,1-.26,2.49,6.28,6.28,0,0,1-.26-2.49A6.24,6.24,0,0,1,232.23,52.82Z" style="fill:#263238"></path><path d="M234.11,47c-.09.11-1-.54-2.05-1.45.87-.39.24-.11.43-.2h0v.48l0,.46c0,.3,0,.57-.05.8,0,.45-.11.73-.19.73s-.13-.28-.18-.73c0-.23,0-.5-.06-.8s0-.32,0-.46v-.48h0c.2-.09-.43.2.44-.19C233.44,46.05,234.21,46.87,234.11,47Z" style="fill:#263238"></path><path d="M241.88,53.81a6.88,6.88,0,0,1-2.11-1.51c-1.08-.95-1.87-1.8-1.77-1.91a6.88,6.88,0,0,1,2.11,1.51C241.18,52.85,242,53.7,241.88,53.81Z" style="fill:#263238"></path><path d="M249.65,60.63a6.68,6.68,0,0,1-2.11-1.51c-1.08-.94-1.87-1.79-1.77-1.9a6.68,6.68,0,0,1,2.11,1.51C249,59.67,249.75,60.52,249.65,60.63Z" style="fill:#263238"></path><path d="M257.42,67.46A6.88,6.88,0,0,1,255.31,66c-1.08-1-1.87-1.8-1.77-1.91a6.88,6.88,0,0,1,2.11,1.51C256.72,66.5,257.52,67.35,257.42,67.46Z" style="fill:#263238"></path><path d="M265.19,74.28a6.68,6.68,0,0,1-2.11-1.51c-1.08-.94-1.87-1.79-1.77-1.9a6.68,6.68,0,0,1,2.11,1.51C264.49,73.32,265.29,74.17,265.19,74.28Z" style="fill:#263238"></path><path d="M273,81.11a6.88,6.88,0,0,1-2.11-1.51c-1.08-.95-1.87-1.8-1.77-1.91a6.88,6.88,0,0,1,2.11,1.51C272.26,80.15,273.06,81,273,81.11Z" style="fill:#263238"></path><path d="M280.73,87.93a6.68,6.68,0,0,1-2.11-1.51c-1.08-.94-1.87-1.79-1.77-1.9A6.68,6.68,0,0,1,279,86C280,87,280.83,87.82,280.73,87.93Z" style="fill:#263238"></path><path d="M288.5,94.76a6.81,6.81,0,0,1-2.11-1.52c-1.08-.94-1.87-1.79-1.77-1.9a6.68,6.68,0,0,1,2.11,1.51C287.8,93.8,288.6,94.65,288.5,94.76Z" style="fill:#263238"></path><path d="M296.27,101.58a6.68,6.68,0,0,1-2.11-1.51c-1.08-.94-1.87-1.79-1.77-1.9a6.68,6.68,0,0,1,2.11,1.51C295.57,100.62,296.37,101.47,296.27,101.58Z" style="fill:#263238"></path><path d="M302,109.14a6.31,6.31,0,0,1-.26-2.5l.09.2h0l0,0,0,0-.1-.08-.18-.17-.35-.32-.56-.57c-.3-.33-.47-.56-.42-.62s.3.08.67.35c.18.13.4.29.63.48l.36.3.19.16.1.08.05,0,0,0h0c0,.08-.09-.2.08.19A6.11,6.11,0,0,1,302,109.14Z" style="fill:#263238"></path><path d="M302,119.06a6.21,6.21,0,0,1-.26-2.48,6.21,6.21,0,0,1,.26-2.48,6,6,0,0,1,.26,2.48A6,6,0,0,1,302,119.06Z" style="fill:#263238"></path><path d="M302,129a12,12,0,0,1,0-5,12,12,0,0,1,0,5Z" style="fill:#263238"></path><path d="M302,138.9a12,12,0,0,1,0-5,12,12,0,0,1,0,5Z" style="fill:#263238"></path><path d="M302,148.81a12,12,0,0,1,0-5,12,12,0,0,1,0,5Z" style="fill:#263238"></path><path d="M302,158.73a12,12,0,0,1,0-5,12,12,0,0,1,0,5Z" style="fill:#263238"></path><path d="M302,168.65a12,12,0,0,1,0-5,12,12,0,0,1,0,5Z" style="fill:#263238"></path><path d="M302,178.57a12,12,0,0,1,0-5,12,12,0,0,1,0,5Z" style="fill:#263238"></path><path d="M302,188.49a12,12,0,0,1,0-5,12,12,0,0,1,0,5Z" style="fill:#263238"></path><path d="M302,198.4a12,12,0,0,1,0-5,12,12,0,0,1,0,5Z" style="fill:#263238"></path><path d="M302,208.32a12,12,0,0,1,0-5,12,12,0,0,1,0,5Z" style="fill:#263238"></path><path d="M302,218.24a12,12,0,0,1,0-5,12,12,0,0,1,0,5Z" style="fill:#263238"></path><path d="M302,228.16a12,12,0,0,1,0-5,12,12,0,0,1,0,5Z" style="fill:#263238"></path><path d="M302,238.07a11.91,11.91,0,0,1,0-4.95,11.91,11.91,0,0,1,0,4.95Z" style="fill:#263238"></path><path d="M302,248a12,12,0,0,1,0-5,12,12,0,0,1,0,5Z" style="fill:#263238"></path><path d="M302,257.91a12,12,0,0,1,0-5,12,12,0,0,1,0,5Z" style="fill:#263238"></path><path d="M302,267.83a12,12,0,0,1,0-5,12,12,0,0,1,0,5Z" style="fill:#263238"></path><path d="M302,277.75a12,12,0,0,1,0-5,12,12,0,0,1,0,5Z" style="fill:#263238"></path><path d="M302,287.66a12,12,0,0,1,0-5,12,12,0,0,1,0,5Z" style="fill:#263238"></path><path d="M302,297.58a12,12,0,0,1,0-5,12,12,0,0,1,0,5Z" style="fill:#263238"></path><path d="M302,307.5a12,12,0,0,1,0-5,12,12,0,0,1,0,5Z" style="fill:#263238"></path><path d="M302,317.42a12,12,0,0,1,0-5,12,12,0,0,1,0,5Z" style="fill:#263238"></path><path d="M302,327.33a11.91,11.91,0,0,1,0-4.95,11.91,11.91,0,0,1,0,4.95Z" style="fill:#263238"></path><path d="M302,337.25a12,12,0,0,1,0-5,12,12,0,0,1,0,5Z" style="fill:#263238"></path><path d="M302,347.17a12,12,0,0,1,0-5,12,12,0,0,1,0,5Z" style="fill:#263238"></path><path d="M302,357.09a12,12,0,0,1,0-5,12,12,0,0,1,0,5Z" style="fill:#263238"></path><path d="M302,367a12,12,0,0,1,0-5,12,12,0,0,1,0,5Z" style="fill:#263238"></path><path d="M302,376.92a12,12,0,0,1,0-5,12,12,0,0,1,0,5Z" style="fill:#263238"></path><path d="M302,386.84a12,12,0,0,1,0-5,12,12,0,0,1,0,5Z" style="fill:#263238"></path><path d="M302,396.76a12,12,0,0,1,0-5,12,12,0,0,1,0,5Z" style="fill:#263238"></path><path d="M299.53,404.22A6.11,6.11,0,0,1,302,404l-.26.26h0v-.94c0-.3,0-.57.06-.8,0-.45.11-.73.18-.73s.14.28.19.73c0,.23,0,.5,0,.8s0,.32,0,.46v.48h0l-.26.26A6.31,6.31,0,0,1,299.53,404.22Z" style="fill:#263238"></path><path d="M289.56,404.22a12.1,12.1,0,0,1,5,0,12.1,12.1,0,0,1-5,0Z" style="fill:#263238"></path><path d="M279.6,404.22a12.05,12.05,0,0,1,5,0,12.05,12.05,0,0,1-5,0Z" style="fill:#263238"></path><path d="M269.63,404.22a12.05,12.05,0,0,1,5,0,12.05,12.05,0,0,1-5,0Z" style="fill:#263238"></path><path d="M259.66,404.22a12.05,12.05,0,0,1,5,0,12.05,12.05,0,0,1-5,0Z" style="fill:#263238"></path><path d="M249.69,404.22a12.05,12.05,0,0,1,5,0,12.05,12.05,0,0,1-5,0Z" style="fill:#263238"></path><path d="M239.72,404.22a12.05,12.05,0,0,1,5,0,12.05,12.05,0,0,1-5,0Z" style="fill:#263238"></path><rect x="243.95" y="91.5" width="7.38" height="15.55" style="fill:#FF725E"></rect><rect x="243.01" y="122.77" width="7.38" height="15.56" style="fill:#FF725E"></rect><rect x="263.33" y="122.77" width="7.38" height="15.56" style="fill:#FF725E"></rect><rect x="283.64" y="122.77" width="7.38" height="15.56" style="fill:#FF725E"></rect><rect x="243.01" y="153.01" width="7.38" height="15.56" style="fill:#FF725E"></rect><rect x="263.33" y="153.01" width="7.38" height="15.56" style="fill:#FF725E"></rect><rect x="283.64" y="153.01" width="7.38" height="15.56" style="fill:#FF725E"></rect><rect x="243.01" y="183.26" width="7.38" height="15.56" style="fill:#FF725E"></rect><rect x="263.33" y="183.26" width="7.38" height="15.56" style="fill:#FF725E"></rect><rect x="283.64" y="183.26" width="7.38" height="15.56" style="fill:#FF725E"></rect><rect x="243.01" y="213.5" width="7.38" height="15.56" style="fill:#FF725E"></rect><rect x="263.33" y="213.5" width="7.38" height="15.56" style="fill:#FF725E"></rect><rect x="283.64" y="213.5" width="7.38" height="15.56" style="fill:#FF725E"></rect><rect x="243.01" y="243.75" width="7.38" height="15.56" style="fill:#FF725E"></rect><rect x="263.33" y="243.75" width="7.38" height="15.56" style="fill:#FF725E"></rect><rect x="283.64" y="243.75" width="7.38" height="15.56" style="fill:#FF725E"></rect><rect x="243.01" y="273.99" width="7.38" height="15.56" style="fill:#FF725E"></rect><rect x="263.33" y="273.99" width="7.38" height="15.56" style="fill:#FF725E"></rect><rect x="283.64" y="273.99" width="7.38" height="15.56" style="fill:#FF725E"></rect><rect x="243.01" y="304.24" width="7.38" height="15.56" style="fill:#FF725E"></rect><rect x="263.33" y="304.24" width="7.38" height="15.56" style="fill:#FF725E"></rect><rect x="283.64" y="304.24" width="7.38" height="15.56" style="fill:#FF725E"></rect><rect x="243.01" y="334.48" width="7.38" height="15.56" style="fill:#FF725E"></rect><rect x="263.33" y="334.48" width="7.38" height="15.56" style="fill:#FF725E"></rect><rect x="283.64" y="334.48" width="7.38" height="15.56" style="fill:#FF725E"></rect><rect x="243.01" y="364.72" width="7.38" height="15.55" style="fill:#FF725E"></rect><rect x="263.33" y="364.72" width="7.38" height="15.55" style="fill:#FF725E"></rect><rect x="283.64" y="364.72" width="7.38" height="15.55" style="fill:#FF725E"></rect><rect x="264.63" y="91.5" width="7.38" height="15.55" style="fill:#FF725E"></rect><rect x="310.15" y="134.33" width="7.38" height="15.56" style="fill:#263238"></rect><rect x="310.15" y="167.83" width="7.38" height="15.55" style="fill:#263238"></rect><rect x="310.15" y="201.32" width="7.38" height="15.55" style="fill:#263238"></rect><rect x="310.15" y="234.81" width="7.38" height="15.56" style="fill:#263238"></rect><rect x="310.15" y="268.3" width="7.38" height="15.55" style="fill:#263238"></rect><rect x="310.15" y="301.8" width="7.38" height="15.56" style="fill:#263238"></rect><rect x="310.15" y="335.29" width="7.38" height="15.55" style="fill:#263238"></rect><rect x="310.15" y="368.78" width="7.38" height="15.55" style="fill:#263238"></rect><path d="M235.41,48.31h-6.35V42h6.35Zm-5.35-1h4.35V43h-4.35Z" style="fill:#263238"></path><path d="M327.29,132h-6.12v-6.12h6.12Zm-5.12-1h4.12v-4.12h-4.12Z" style="fill:#263238"></path><rect x="299.77" y="103.81" width="5.57" height="5.57" style="fill:#263238"></rect><polygon points="313.13 91.5 309.01 102.03 320.09 98.74 314.82 96.77 313.13 91.5" style="fill:#263238"></polygon><rect x="140" y="148.09" width="97.06" height="257.82" style="fill:#455a64"></rect><rect x="199.81" y="148.09" width="37.24" height="257.82" style="fill:#263238"></rect><rect x="153.81" y="167.8" width="7.38" height="15.55" style="fill:#263238"></rect><rect x="173.44" y="167.8" width="7.38" height="15.55" style="fill:#263238"></rect><rect x="153.81" y="197.43" width="7.38" height="15.56" style="fill:#263238"></rect><rect x="173.44" y="197.43" width="7.38" height="15.56" style="fill:#263238"></rect><rect x="153.81" y="227.06" width="7.38" height="15.55" style="fill:#263238"></rect><rect x="173.44" y="227.06" width="7.38" height="15.55" style="fill:#263238"></rect><rect x="153.81" y="256.69" width="7.38" height="15.55" style="fill:#263238"></rect><rect x="173.44" y="256.69" width="7.38" height="15.55" style="fill:#263238"></rect><rect x="153.81" y="286.32" width="7.38" height="15.56" style="fill:#263238"></rect><rect x="173.44" y="286.32" width="7.38" height="15.56" style="fill:#263238"></rect><rect x="153.81" y="315.94" width="7.38" height="15.56" style="fill:#263238"></rect><rect x="173.44" y="315.94" width="7.38" height="15.56" style="fill:#263238"></rect><rect x="153.81" y="345.57" width="7.38" height="15.55" style="fill:#263238"></rect><rect x="173.44" y="345.57" width="7.38" height="15.55" style="fill:#263238"></rect><rect x="153.81" y="375.2" width="7.38" height="15.56" style="fill:#263238"></rect><rect x="173.44" y="375.2" width="7.38" height="15.56" style="fill:#263238"></rect><rect x="214.75" y="168.44" width="7.38" height="15.55" style="fill:#455a64"></rect><rect x="214.75" y="195.73" width="7.38" height="15.56" style="fill:#455a64"></rect><rect x="214.75" y="226.28" width="7.38" height="15.56" style="fill:#455a64"></rect><rect x="214.75" y="255.49" width="7.38" height="15.56" style="fill:#455a64"></rect><rect x="214.75" y="284.69" width="7.38" height="15.56" style="fill:#455a64"></rect><rect x="214.75" y="313.89" width="7.38" height="15.56" style="fill:#455a64"></rect><rect x="214.75" y="343.1" width="7.38" height="15.55" style="fill:#455a64"></rect><rect x="214.75" y="375.2" width="7.38" height="15.56" style="fill:#455a64"></rect><rect x="131.54" y="146.47" width="110.35" height="3.01" style="fill:#263238"></rect><rect x="179.15" y="128.33" width="39.28" height="19.65" style="fill:#263238"></rect><rect x="179.15" y="128.33" width="20.66" height="18.14" style="fill:#455a64"></rect><path d="M199.81,189.46c0,.14-13.39.26-29.9.26S140,189.6,140,189.46s13.39-.26,29.91-.26S199.81,189.32,199.81,189.46Z" style="fill:#263238"></path><path d="M199.81,219.19c0,.15-13.39.27-29.9.27s-29.91-.12-29.91-.27,13.39-.26,29.91-.26S199.81,219.05,199.81,219.19Z" style="fill:#263238"></path><path d="M199.81,249.29c0,.14-13.39.26-29.9.26s-29.91-.12-29.91-.26,13.39-.26,29.91-.26S199.81,249.14,199.81,249.29Z" style="fill:#263238"></path><path d="M199.81,279.16c0,.15-13.39.26-29.9.26s-29.91-.11-29.91-.26,13.39-.26,29.91-.26S199.81,279,199.81,279.16Z" style="fill:#263238"></path><path d="M199.81,308.61c0,.14-13.39.26-29.9.26s-29.91-.12-29.91-.26,13.39-.26,29.91-.26S199.81,308.47,199.81,308.61Z" style="fill:#263238"></path><path d="M199.81,337.26c0,.14-13.39.26-29.9.26S140,337.4,140,337.26s13.39-.26,29.91-.26S199.81,337.11,199.81,337.26Z" style="fill:#263238"></path><path d="M199.81,369c0,.14-13.39.26-29.9.26S140,369.15,140,369s13.39-.26,29.91-.26S199.81,368.86,199.81,369Z" style="fill:#263238"></path><path d="M236.63,150.68c0,.15-8,.26-17.81.26s-17.81-.11-17.81-.26,8-.26,17.81-.26S236.63,150.54,236.63,150.68Z" style="fill:#455a64"></path><path d="M236.63,189.46c0,.14-8,.26-17.81.26S201,189.6,201,189.46s8-.26,17.81-.26S236.63,189.32,236.63,189.46Z" style="fill:#455a64"></path><path d="M236.63,219.19c0,.15-8,.27-17.81.27s-17.81-.12-17.81-.27,8-.26,17.81-.26S236.63,219.05,236.63,219.19Z" style="fill:#455a64"></path><path d="M236.63,248.93c0,.14-8,.26-17.81.26s-17.81-.12-17.81-.26,8-.26,17.81-.26S236.63,248.78,236.63,248.93Z" style="fill:#455a64"></path><path d="M236.24,279.16c0,.15-8,.26-17.8.26s-17.81-.11-17.81-.26,8-.26,17.81-.26S236.24,279,236.24,279.16Z" style="fill:#455a64"></path><path d="M236.24,308.61c0,.14-8,.26-17.8.26s-17.81-.12-17.81-.26,8-.26,17.81-.26S236.24,308.47,236.24,308.61Z" style="fill:#455a64"></path><path d="M236.24,338.06c0,.14-8,.26-17.8.26s-17.81-.12-17.81-.26,8-.26,17.81-.26S236.24,337.91,236.24,338.06Z" style="fill:#455a64"></path><path d="M236.24,369c0,.14-8,.26-17.8.26s-17.81-.12-17.81-.26,8-.26,17.81-.26S236.24,368.86,236.24,369Z" style="fill:#455a64"></path><rect x="112.39" y="311.26" width="71.93" height="94.88" style="fill:#FF725E"></rect><rect x="112.39" y="311.26" width="71.93" height="94.88" style="opacity:0.1"></rect><rect x="150.6" y="311.26" width="33.73" height="94.88" style="fill:#FF725E"></rect><rect x="150.6" y="311.26" width="33.73" height="94.88" style="opacity:0.30000000000000004"></rect><rect x="127.48" y="324.11" width="6.47" height="15.71" style="fill:#FF725E"></rect><rect x="127.48" y="385.61" width="6.47" height="15.71" style="fill:#FF725E"></rect><path d="M150.6,346c0,.14-8.56.26-19.1.26s-19.11-.12-19.11-.26,8.55-.26,19.11-.26S150.6,345.84,150.6,346Z" style="fill:#FF725E"></path><rect x="127.48" y="355.09" width="6.47" height="15.71" style="fill:#FF725E"></rect><path d="M150.6,377c0,.14-8.56.26-19.1.26s-19.11-.12-19.11-.26,8.55-.26,19.11-.26S150.6,376.83,150.6,377Z" style="fill:#FF725E"></path><g style="opacity:0.30000000000000004"><rect x="127.48" y="324.11" width="6.47" height="15.71"></rect><rect x="127.48" y="385.61" width="6.47" height="15.71"></rect><path d="M150.6,346c0,.14-8.56.26-19.1.26s-19.11-.12-19.11-.26,8.55-.26,19.11-.26S150.6,345.84,150.6,346Z"></path><rect x="127.48" y="355.09" width="6.47" height="15.71"></rect><path d="M150.6,377c0,.14-8.56.26-19.1.26s-19.11-.12-19.11-.26,8.55-.26,19.11-.26S150.6,376.83,150.6,377Z"></path></g><rect x="157.76" y="324.11" width="6.47" height="15.71" style="fill:#FF725E"></rect><rect x="171.79" y="324.11" width="6.47" height="15.71" style="fill:#FF725E"></rect><rect x="157.76" y="353.92" width="6.47" height="15.71" style="fill:#FF725E"></rect><rect x="171.79" y="353.92" width="6.47" height="15.71" style="fill:#FF725E"></rect><rect x="157.76" y="383.74" width="6.47" height="15.71" style="fill:#FF725E"></rect><rect x="171.79" y="383.74" width="6.47" height="15.71" style="fill:#FF725E"></rect><g style="opacity:0.7000000000000001"><rect x="157.76" y="324.11" width="6.47" height="15.71"></rect><rect x="171.79" y="324.11" width="6.47" height="15.71"></rect><rect x="157.76" y="353.92" width="6.47" height="15.71"></rect><rect x="171.79" y="353.92" width="6.47" height="15.71"></rect><rect x="157.76" y="383.74" width="6.47" height="15.71"></rect><rect x="171.79" y="383.74" width="6.47" height="15.71"></rect></g><rect x="106.99" y="307.96" width="82.75" height="3.42" style="fill:#FF725E"></rect><rect x="106.99" y="307.96" width="82.75" height="3.42" style="opacity:0.30000000000000004"></rect><path d="M184.83,311.7c0,.15-16.08.26-35.91.26S113,311.85,113,311.7s16.08-.26,35.91-.26S184.83,311.56,184.83,311.7Z" style="fill:#FF725E"></path><path d="M184.83,311.7c0,.15-16.08.26-35.91.26S113,311.85,113,311.7s16.08-.26,35.91-.26S184.83,311.56,184.83,311.7Z"></path><rect x="223.47" y="268.19" width="75.66" height="137.32" style="fill:#FF725E"></rect><rect x="223.47" y="268.19" width="75.66" height="137.32" style="opacity:0.7000000000000001"></rect><rect x="277.76" y="268.19" width="21.37" height="137.32" style="fill:#FF725E"></rect><rect x="277.76" y="268.19" width="21.37" height="137.32" style="opacity:0.8"></rect><rect x="237.94" y="285.91" width="7.38" height="15.55" style="fill:#FF725E"></rect><rect x="258.45" y="285.91" width="7.38" height="15.55" style="fill:#FF725E"></rect><rect x="237.94" y="314.64" width="7.38" height="15.56" style="fill:#FF725E"></rect><rect x="258.45" y="314.64" width="7.38" height="15.56" style="fill:#FF725E"></rect><rect x="237.94" y="343.37" width="7.38" height="15.56" style="fill:#FF725E"></rect><rect x="258.45" y="343.37" width="7.38" height="15.56" style="fill:#FF725E"></rect><rect x="237.94" y="374.8" width="7.38" height="15.55" style="fill:#FF725E"></rect><rect x="258.45" y="375.56" width="7.38" height="15.55" style="fill:#FF725E"></rect><g style="opacity:0.4"><rect x="237.94" y="285.91" width="7.38" height="15.55"></rect><rect x="258.45" y="285.91" width="7.38" height="15.55"></rect><rect x="237.94" y="314.64" width="7.38" height="15.56"></rect><rect x="258.45" y="314.64" width="7.38" height="15.56"></rect><rect x="237.94" y="343.37" width="7.38" height="15.56"></rect><rect x="258.45" y="343.37" width="7.38" height="15.56"></rect><rect x="237.94" y="374.8" width="7.38" height="15.55"></rect><rect x="258.45" y="375.56" width="7.38" height="15.55"></rect></g><path d="M277.83,368.52c0,.14-12,.26-26.81.26s-26.81-.12-26.81-.26,12-.26,26.81-.26S277.83,368.37,277.83,368.52Z" style="fill:#FF725E"></path><path d="M277.83,337.65c0,.15-12,.26-26.81.26s-26.81-.11-26.81-.26,12-.26,26.81-.26S277.83,337.51,277.83,337.65Z" style="fill:#FF725E"></path><path d="M277.83,308c0,.14-12,.26-26.81.26s-26.81-.12-26.81-.26,12-.26,26.81-.26S277.83,307.81,277.83,308Z" style="fill:#FF725E"></path><g style="opacity:0.8"><path d="M277.83,368.52c0,.14-12,.26-26.81.26s-26.81-.12-26.81-.26,12-.26,26.81-.26S277.83,368.37,277.83,368.52Z"></path><path d="M277.83,337.65c0,.15-12,.26-26.81.26s-26.81-.11-26.81-.26,12-.26,26.81-.26S277.83,337.51,277.83,337.65Z"></path><path d="M277.83,308c0,.14-12,.26-26.81.26s-26.81-.12-26.81-.26,12-.26,26.81-.26S277.83,307.81,277.83,308Z"></path></g><rect x="285.12" y="286.34" width="7.38" height="15.56" style="fill:#263238"></rect><rect x="285.12" y="315.93" width="7.38" height="15.55" style="fill:#263238"></rect><rect x="285.12" y="345.53" width="7.38" height="15.56" style="fill:#263238"></rect><rect x="285.12" y="375.13" width="7.38" height="15.56" style="fill:#263238"></rect><rect x="268.28" y="177.04" width="87.15" height="228.12" style="fill:#455a64"></rect><rect x="312.87" y="178.06" width="43.58" height="228.12" style="fill:#263238"></rect><rect x="278.23" y="149.93" width="30.78" height="27.12" style="fill:#455a64"></rect><rect x="301.67" y="149.93" width="7.33" height="27.12" style="fill:#263238"></rect><rect x="329.44" y="188.87" width="7.38" height="15.56" style="fill:#455a64"></rect><path d="M355.81,210.53c0,.14-9.76.26-21.79.26s-21.79-.12-21.79-.26,9.76-.26,21.79-.26S355.81,210.39,355.81,210.53Z" style="fill:#455a64"></path><rect x="329.44" y="219.75" width="7.38" height="15.55" style="fill:#455a64"></rect><path d="M355.81,241.41c0,.15-9.76.26-21.79.26s-21.79-.11-21.79-.26,9.76-.26,21.79-.26S355.81,241.27,355.81,241.41Z" style="fill:#455a64"></path><rect x="329.44" y="251.57" width="7.38" height="15.56" style="fill:#455a64"></rect><path d="M355.81,273.23c0,.14-9.76.26-21.79.26s-21.79-.12-21.79-.26S322,273,334,273,355.81,273.08,355.81,273.23Z" style="fill:#455a64"></path><rect x="329.44" y="283.38" width="7.38" height="15.56" style="fill:#455a64"></rect><path d="M355.81,305c0,.15-9.76.26-21.79.26s-21.79-.11-21.79-.26,9.76-.26,21.79-.26S355.81,304.9,355.81,305Z" style="fill:#455a64"></path><rect x="329.44" y="314.29" width="7.38" height="15.55" style="fill:#455a64"></rect><path d="M355.81,336c0,.14-9.76.26-21.79.26s-21.79-.12-21.79-.26,9.76-.26,21.79-.26S355.81,335.8,355.81,336Z" style="fill:#455a64"></path><rect x="329.44" y="345.32" width="7.38" height="15.55" style="fill:#455a64"></rect><rect x="329.44" y="376.75" width="7.38" height="15.56" style="fill:#455a64"></rect><path d="M355.81,367c0,.14-9.76.26-21.79.26s-21.79-.12-21.79-.26,9.76-.26,21.79-.26S355.81,366.83,355.81,367Z" style="fill:#455a64"></path><rect x="261.02" y="175.46" width="96.97" height="1.58" style="fill:#263238"></rect><rect x="285.48" y="188.87" width="7.38" height="15.56" style="fill:#e6e6e6"></rect><path d="M311.86,210.53c0,.14-9.76.26-21.79.26s-21.79-.12-21.79-.26,9.75-.26,21.79-.26S311.86,210.39,311.86,210.53Z" style="fill:#e6e6e6"></path><rect x="285.48" y="220.22" width="7.38" height="15.55" style="fill:#e6e6e6"></rect><path d="M311.86,241.88c0,.15-9.76.26-21.79.26s-21.79-.11-21.79-.26,9.75-.26,21.79-.26S311.86,241.74,311.86,241.88Z" style="fill:#e6e6e6"></path><rect x="285.48" y="251.58" width="7.38" height="15.55" style="fill:#e6e6e6"></rect><path d="M311.86,273.24c0,.14-9.76.26-21.79.26s-21.79-.12-21.79-.26S278,273,290.07,273,311.86,273.09,311.86,273.24Z" style="fill:#e6e6e6"></path><rect x="285.48" y="282.93" width="7.38" height="15.56" style="fill:#e6e6e6"></rect><path d="M311.86,304.59c0,.15-9.76.26-21.79.26s-21.79-.11-21.79-.26,9.75-.26,21.79-.26S311.86,304.45,311.86,304.59Z" style="fill:#e6e6e6"></path><rect x="285.48" y="314.29" width="7.38" height="15.55" style="fill:#e6e6e6"></rect><path d="M311.86,336c0,.14-9.76.26-21.79.26s-21.79-.12-21.79-.26,9.75-.26,21.79-.26S311.86,335.8,311.86,336Z" style="fill:#e6e6e6"></path><rect x="285.48" y="345.64" width="7.38" height="15.56" style="fill:#e6e6e6"></rect><path d="M311.86,367.3c0,.15-9.76.26-21.79.26s-21.79-.11-21.79-.26S278,367,290.07,367,311.86,367.16,311.86,367.3Z" style="fill:#e6e6e6"></path><rect x="285.48" y="377" width="7.38" height="15.56" style="fill:#e6e6e6"></rect><rect x="344.38" y="312" width="71.21" height="93.92" style="fill:#263238"></rect><rect x="382.2" y="312" width="33.39" height="93.92" style="fill:#455a64"></rect><rect x="359.31" y="324.71" width="6.4" height="15.56" style="fill:#455a64"></rect><rect x="359.31" y="385.59" width="6.4" height="15.56" style="fill:#455a64"></rect><path d="M382.2,346.37c0,.15-8.47.26-18.91.26s-18.91-.11-18.91-.26,8.46-.26,18.91-.26S382.2,346.23,382.2,346.37Z" style="fill:#455a64"></path><rect x="359.31" y="355.38" width="6.4" height="15.55" style="fill:#455a64"></rect><path d="M382.2,377c0,.15-8.47.26-18.91.26s-18.91-.11-18.91-.26,8.46-.26,18.91-.26S382.2,376.9,382.2,377Z" style="fill:#455a64"></path><rect x="389.29" y="324.71" width="6.4" height="15.56" style="fill:#263238"></rect><rect x="403.18" y="324.71" width="6.4" height="15.56" style="fill:#263238"></rect><rect x="389.29" y="354.23" width="6.4" height="15.56" style="fill:#263238"></rect><rect x="403.18" y="354.23" width="6.4" height="15.56" style="fill:#263238"></rect><rect x="389.29" y="383.74" width="6.4" height="15.55" style="fill:#263238"></rect><rect x="403.18" y="383.74" width="6.4" height="15.55" style="fill:#263238"></rect><rect x="339.02" y="308.73" width="81.91" height="3.39" style="fill:#263238"></rect><path d="M416.08,312.43c0,.15-15.92.26-35.54.26s-35.55-.11-35.55-.26,15.91-.26,35.55-.26S416.08,312.29,416.08,312.43Z" style="fill:#e0e0e0"></path><path d="M94.85,194.85H88.74v-6.12h6.11Zm-5.11-1h4.11v-4.12H89.74Z" style="fill:#263238"></path><rect x="89.24" y="266.37" width="5.11" height="5.11" style="fill:#263238"></rect></g><g id="freepik--Floor--inject-84"><path d="M451.55,405.91c0,.15-85.85.27-191.71.27s-191.74-.12-191.74-.27,85.83-.26,191.74-.26S451.55,405.77,451.55,405.91Z" style="fill:#263238"></path></g><g id="freepik--Shadow--inject-84"><path d="M352.71,443.69c0,3.88-47,7-105.08,7s-105.08-3.13-105.08-7,47-7,105.08-7S352.71,439.82,352.71,443.69Z" style="fill:#e0e0e0"></path></g><g id="freepik--Character--inject-84"><path d="M301.72,325.47c-.38,3.42-3.46,6-6.69,7.16S288.3,334,285,335s-6.65,2.9-7.79,6.14c-1.33,3.75.62,8.21-1.19,11.75-1.36,2.64-4.45,4-6.07,6.46-1.87,2.88-1.38,6.71-.17,9.92A22.72,22.72,0,0,0,278,380a18.38,18.38,0,0,0,13,3.15c6.89-1.06,12.43-6.35,16.17-12.23a40.92,40.92,0,0,0,6.63-23.47,32.16,32.16,0,0,0-9.84-22.05" style="fill:#FF725E"></path><path d="M301.72,325.47c-.38,3.42-3.46,6-6.69,7.16S288.3,334,285,335s-6.65,2.9-7.79,6.14c-1.33,3.75.62,8.21-1.19,11.75-1.36,2.64-4.45,4-6.07,6.46-1.87,2.88-1.38,6.71-.17,9.92A22.72,22.72,0,0,0,278,380a18.38,18.38,0,0,0,13,3.15c6.89-1.06,12.43-6.35,16.17-12.23a40.92,40.92,0,0,0,6.63-23.47,32.16,32.16,0,0,0-9.84-22.05" style="opacity:0.7000000000000001"></path><path d="M273,348.21a1.48,1.48,0,0,0-1.58-1.35,2.15,2.15,0,0,0-1.83,1.66,4.14,4.14,0,0,0,.51,3.41,4.05,4.05,0,0,0,3.58,2,4.48,4.48,0,0,0,2.25-.66,4.24,4.24,0,0,0,1.6-1.89,9.71,9.71,0,0,0,.34-5.46,20.19,20.19,0,0,1-.53-6.13,6.37,6.37,0,0,1,1.24-2.95,7.89,7.89,0,0,1,2.36-2,13.93,13.93,0,0,1,5.52-1.6c1.82-.19,3.55-.21,5.14-.38a15.25,15.25,0,0,0,4.3-1A12.73,12.73,0,0,0,301,328c.94-1.2,1.28-2,1.33-2a2.66,2.66,0,0,1-.24.58,11.6,11.6,0,0,1-.93,1.51,12.45,12.45,0,0,1-5.08,4.05,15.26,15.26,0,0,1-4.4,1.08c-1.61.19-3.34.23-5.13.43a13.51,13.51,0,0,0-5.32,1.57,6.3,6.3,0,0,0-3.33,4.58,19.65,19.65,0,0,0,.52,6,10.22,10.22,0,0,1-.41,5.74,4.69,4.69,0,0,1-1.8,2.08,4.89,4.89,0,0,1-2.49.7,4.49,4.49,0,0,1-2.33-.62,4.74,4.74,0,0,1-1.57-1.58,4.48,4.48,0,0,1-.47-3.7,2.35,2.35,0,0,1,2.12-1.77,1.75,1.75,0,0,1,1.5.93A.83.83,0,0,1,273,348.21Z" style="fill:#FF725E"></path><path d="M273,348.21a1.48,1.48,0,0,0-1.58-1.35,2.15,2.15,0,0,0-1.83,1.66,4.14,4.14,0,0,0,.51,3.41,4.05,4.05,0,0,0,3.58,2,4.48,4.48,0,0,0,2.25-.66,4.24,4.24,0,0,0,1.6-1.89,9.71,9.71,0,0,0,.34-5.46,20.19,20.19,0,0,1-.53-6.13,6.37,6.37,0,0,1,1.24-2.95,7.89,7.89,0,0,1,2.36-2,13.93,13.93,0,0,1,5.52-1.6c1.82-.19,3.55-.21,5.14-.38a15.25,15.25,0,0,0,4.3-1A12.73,12.73,0,0,0,301,328c.94-1.2,1.28-2,1.33-2a2.66,2.66,0,0,1-.24.58,11.6,11.6,0,0,1-.93,1.51,12.45,12.45,0,0,1-5.08,4.05,15.26,15.26,0,0,1-4.4,1.08c-1.61.19-3.34.23-5.13.43a13.51,13.51,0,0,0-5.32,1.57,6.3,6.3,0,0,0-3.33,4.58,19.65,19.65,0,0,0,.52,6,10.22,10.22,0,0,1-.41,5.74,4.69,4.69,0,0,1-1.8,2.08,4.89,4.89,0,0,1-2.49.7,4.49,4.49,0,0,1-2.33-.62,4.74,4.74,0,0,1-1.57-1.58,4.48,4.48,0,0,1-.47-3.7,2.35,2.35,0,0,1,2.12-1.77,1.75,1.75,0,0,1,1.5.93A.83.83,0,0,1,273,348.21Z" style="opacity:0.7000000000000001"></path><path d="M304,341.79c.12-2.75-.25-11.29-.24-11,0,0-6.23-.1-7.14-6.18s-1.8-20.21-1.8-20.21l10.74-6.49,13.18,8.26.95,34.35Z" style="fill:#ffbe9d"></path><path d="M297,314.59a.78.78,0,1,0,.71-.85A.78.78,0,0,0,297,314.59Z" style="fill:#263238"></path><path d="M296.14,313.81c.11.09.65-.45,1.49-.57s1.5.23,1.58.11-.08-.24-.37-.4a2.08,2.08,0,0,0-2.45.37C296.16,313.56,296.09,313.77,296.14,313.81Z" style="fill:#263238"></path><path d="M306.05,313.79a.78.78,0,1,0,1.56-.14.8.8,0,0,0-.85-.72A.79.79,0,0,0,306.05,313.79Z" style="fill:#263238"></path><path d="M305.48,313c.11.09.65-.45,1.49-.57s1.5.23,1.58.1-.08-.23-.37-.39a2,2,0,0,0-1.29-.22,2,2,0,0,0-1.16.59C305.49,312.73,305.43,312.94,305.48,313Z" style="fill:#263238"></path><path d="M303.08,320.36a5.16,5.16,0,0,0-1.4-.05c-.21,0-.42,0-.48-.16a1.14,1.14,0,0,1,.07-.68q.19-.86.42-1.8a30.71,30.71,0,0,0,.87-4.67,30.63,30.63,0,0,0-1.23,4.59q-.21.95-.39,1.8a1.38,1.38,0,0,0,0,.9.55.55,0,0,0,.4.27,1.14,1.14,0,0,0,.37,0A5.07,5.07,0,0,0,303.08,320.36Z" style="fill:#263238"></path><path d="M305.93,320.91c.8-.64-2.23,1.61-3.95,1.77a2.34,2.34,0,0,0,2.87.54C306.58,322.3,305.93,320.91,305.93,320.91Z" style="fill:#fff"></path><path d="M303.78,330.82a15.31,15.31,0,0,0,7.85-3.45S310.2,332,304,332.31Z" style="fill:#eb996e"></path><path d="M327.27,307.23c-4.47-12.46-15.89-13.84-18.1-13.64-2.38.21-6.66-.72-12.16,6.12s-1.85,12.58-1.85,12.58l9.95-3.4c-.93-2.35-.15-5.45.32-6.89l.05-.05c2.59,9,12.94,11.87,12.94,11.87l9.72-3.7A25.15,25.15,0,0,0,327.27,307.23Z" style="fill:#FF725E"></path><path d="M328.11,310s2.94,14.57-8.74,18.17l-1.17-17.66Z" style="fill:#FF725E"></path><path d="M292.57,312.74a7.47,7.47,0,0,1-.24-2.49,16.8,16.8,0,0,1,4.49-11,7.14,7.14,0,0,1,1.91-1.6c.06.07-.66.69-1.64,1.85a19.63,19.63,0,0,0-3,5,19.32,19.32,0,0,0-1.35,5.73C292.59,311.78,292.66,312.73,292.57,312.74Z" style="fill:#FF725E"></path><path d="M305.29,301.81c.08,0,.41,1.12,1.11,2.89a20.76,20.76,0,0,0,3.77,6.31,11.57,11.57,0,0,0,6.26,3.39,4.43,4.43,0,0,0,2.18,0c.49-.15.6.11.62.14s-.05-.18-.55.05a4.28,4.28,0,0,1-2.31.2,11.15,11.15,0,0,1-6.58-3.4,18.73,18.73,0,0,1-3.74-6.53,21.92,21.92,0,0,1-.63-2.19A2.66,2.66,0,0,1,305.29,301.81Z" style="fill:#FF725E"></path><g style="opacity:0.7000000000000001"><path d="M327.27,307.23c-4.47-12.46-15.89-13.84-18.1-13.64-2.38.21-6.66-.72-12.16,6.12s-1.85,12.58-1.85,12.58l9.95-3.4c-.93-2.35-.15-5.45.32-6.89l.05-.05c2.59,9,12.94,11.87,12.94,11.87l9.72-3.7A25.15,25.15,0,0,0,327.27,307.23Z"></path><path d="M328.11,310s2.94,14.57-8.74,18.17l-1.17-17.66Z"></path><path d="M292.57,312.74a7.47,7.47,0,0,1-.24-2.49,16.8,16.8,0,0,1,4.49-11,7.14,7.14,0,0,1,1.91-1.6c.06.07-.66.69-1.64,1.85a19.63,19.63,0,0,0-3,5,19.32,19.32,0,0,0-1.35,5.73C292.59,311.78,292.66,312.73,292.57,312.74Z"></path><path d="M305.29,301.81c.08,0,.41,1.12,1.11,2.89a20.76,20.76,0,0,0,3.77,6.31,11.57,11.57,0,0,0,6.26,3.39,4.43,4.43,0,0,0,2.18,0c.49-.15.6.11.62.14s-.05-.18-.55.05a4.28,4.28,0,0,1-2.31.2,11.15,11.15,0,0,1-6.58-3.4,18.73,18.73,0,0,1-3.74-6.53,21.92,21.92,0,0,1-.63-2.19A2.66,2.66,0,0,1,305.29,301.81Z"></path></g><path d="M318.25,314.78c.11-.07,3.68-1.2,4.11,3.19s-4.14,3.36-4.16,3.24S318.25,314.78,318.25,314.78Z" style="fill:#ffbe9d"></path><path d="M319.39,319.54s.08,0,.22.09a.83.83,0,0,0,.57,0,1.91,1.91,0,0,0,.71-1.78,2.63,2.63,0,0,0-.32-1.08.93.93,0,0,0-.63-.53.39.39,0,0,0-.43.26c-.05.12,0,.21,0,.22s-.1-.07-.08-.25a.49.49,0,0,1,.14-.29A.54.54,0,0,1,320,316a1.07,1.07,0,0,1,.86.6,2.54,2.54,0,0,1,.38,1.19,2,2,0,0,1-.92,2,.8.8,0,0,1-.71,0C319.41,319.64,319.38,319.55,319.39,319.54Z" style="fill:#eb996e"></path><path d="M321.8,320.62c0-.06.5.11.7.81a1.65,1.65,0,0,1-.16,1.22,1.61,1.61,0,0,1-1.34.73,1.57,1.57,0,0,1-1.36-.69,1.59,1.59,0,0,1-.2-1.22c.18-.7.65-.89.67-.83s-.26.33-.31.89a1.35,1.35,0,0,0,.23.89,1.18,1.18,0,0,0,1,.44,1.14,1.14,0,0,0,.94-.47,1.41,1.41,0,0,0,.21-.89C322.07,320.94,321.75,320.68,321.8,320.62Z" style="fill:#FF725E"></path><path d="M152.52,422.94l9.37-2,3.8,17.54-13.69,3-.3-1.08c-1.32-4.78-6.36-24.4-6.08-27.85C145.93,408.77,152.52,422.94,152.52,422.94Z" style="fill:#FF725E"></path><path d="M152.38,441.73a1.65,1.65,0,0,1-.1-.29l-.24-.86c-.22-.85-.5-1.91-.82-3.16-.69-2.67-1.58-6.37-2.47-10.48s-1.63-7.85-2.12-10.56c-.23-1.27-.41-2.35-.57-3.21-.05-.33-.09-.62-.13-.88s0-.31,0-.31a1.1,1.1,0,0,1,.08.3c.05.26.11.55.17.87l.63,3.2c.53,2.71,1.28,6.44,2.18,10.55s1.76,7.81,2.41,10.49c.3,1.26.56,2.32.76,3.17.08.32.14.61.2.87A1.11,1.11,0,0,1,152.38,441.73Z" style="fill:#263238"></path><path d="M146.77,418.21a7,7,0,0,0,1.39-.92,6.73,6.73,0,0,0,1-1.36,2.93,2.93,0,0,1-2.37,2.28Z" style="fill:#263238"></path><path d="M150.51,422.82c0-.05.21-.36.56-.7s.66-.59.7-.55-.21.35-.55.7S150.56,422.86,150.51,422.82Z" style="fill:#263238"></path><path d="M151.57,424.07s.08-.34.29-.7.41-.63.46-.6-.08.34-.28.7S151.62,424.1,151.57,424.07Z" style="fill:#263238"></path><path d="M153.42,424.61a2.47,2.47,0,0,1-.31-.89,2.16,2.16,0,0,1-.1-.94,2.47,2.47,0,0,1,.31.89A2.17,2.17,0,0,1,153.42,424.61Z" style="fill:#263238"></path><path d="M154.66,424.67a2.66,2.66,0,0,1-.61-2.05,5.81,5.81,0,0,1,.29,1A5.94,5.94,0,0,1,154.66,424.67Z" style="fill:#263238"></path><path d="M151.92,421.89a3.2,3.2,0,0,1-.24-1.13,6.68,6.68,0,0,1,0-1.26,3,3,0,0,1,.13-.74.63.63,0,0,1,.29-.36.45.45,0,0,1,.48.08,2.11,2.11,0,0,1-.05,2.68,2.15,2.15,0,0,1-.67.53.65.65,0,0,1-.3.1,3.19,3.19,0,0,0,.85-.72,2.06,2.06,0,0,0,.42-1.1,1.82,1.82,0,0,0-.38-1.33c-.18-.15-.38,0-.45.19a3.23,3.23,0,0,0-.13.69,6.68,6.68,0,0,0,0,1.23C151.86,421.45,152,421.88,151.92,421.89Z" style="fill:#263238"></path><path d="M151.8,421.61a1.13,1.13,0,0,1,.75-.3,2,2,0,0,1,.89.13c.29.15.69.33.77.81a.45.45,0,0,1-.44.46,1.31,1.31,0,0,1-.54-.08,3.51,3.51,0,0,1-.8-.39,1.73,1.73,0,0,1-.6-.54s.25.18.68.42a4.18,4.18,0,0,0,.78.32c.27.11.72.12.72-.18s-.38-.52-.65-.64a1.73,1.73,0,0,0-.8-.16A3.08,3.08,0,0,0,151.8,421.61Z" style="fill:#263238"></path><path d="M157.1,440.33s-.06-.51-.32-1.29a5.88,5.88,0,0,0-1.78-2.57,5.69,5.69,0,0,0-2.88-1.22c-.82-.11-1.33,0-1.33-.06s.12-.05.35-.08a4.48,4.48,0,0,1,1,0,5.51,5.51,0,0,1,3,1.21,5.59,5.59,0,0,1,1.79,2.69,4.74,4.74,0,0,1,.18,1A1.12,1.12,0,0,1,157.1,440.33Z" style="fill:#263238"></path><path d="M164,436.93a34.14,34.14,0,0,1-3.57.93,30.05,30.05,0,0,1-3.61.72,34.14,34.14,0,0,1,3.57-.93A32.63,32.63,0,0,1,164,436.93Z" style="fill:#263238"></path><path d="M151.91,432.6a15.25,15.25,0,0,1-1.16-5.11c.06,0,.24,1.15.56,2.56S152,432.59,151.91,432.6Z" style="fill:#263238"></path><path d="M152.67,436s-.26-.05-.55-.11-.54-.07-.55-.13.26-.14.59-.07S152.7,436,152.67,436Z" style="fill:#263238"></path><path d="M154.56,437s-.24,0-.46-.17-.38-.3-.35-.35.24,0,.46.17S154.59,436.94,154.56,437Z" style="fill:#263238"></path><path d="M155.7,438.68c-.06,0-.11-.24-.25-.47s-.33-.4-.3-.45.3,0,.47.34S155.75,438.68,155.7,438.68Z" style="fill:#263238"></path><path d="M156.33,439.92s-.15-.05-.24-.18-.12-.27-.08-.3.16.05.25.18S156.38,439.89,156.33,439.92Z" style="fill:#263238"></path><polygon points="159.68 442.37 225.26 436.31 323.55 438.51 302.87 416.01 232.31 412.62 154.43 419.97 159.68 442.37" style="fill:#263238"></polygon><path d="M170.87,429.55a12.51,12.51,0,0,1-5,.58,12,12,0,0,1,5-.58Z" style="fill:#455a64"></path><path d="M180.82,428.52a11.87,11.87,0,0,1-5,.49,12.37,12.37,0,0,1,5-.49Z" style="fill:#455a64"></path><path d="M190.78,427.68a12.1,12.1,0,0,1-5,.4,12.1,12.1,0,0,1,5-.4Z" style="fill:#455a64"></path><path d="M200.76,427a6.13,6.13,0,0,1-2.48.42,6.28,6.28,0,0,1-2.51-.1,6.13,6.13,0,0,1,2.48-.42A6.23,6.23,0,0,1,200.76,427Z" style="fill:#455a64"></path><path d="M210.75,426.5a6.27,6.27,0,0,1-2.48.37,6.21,6.21,0,0,1-2.51-.14,11.88,11.88,0,0,1,5-.23Z" style="fill:#FF725E"></path><path d="M220.75,426.16a6.42,6.42,0,0,1-2.5.33,6.05,6.05,0,0,1-2.5-.19,6.3,6.3,0,0,1,2.49-.33A6.12,6.12,0,0,1,220.75,426.16Z" style="fill:#FF725E"></path><path d="M230.74,426a6.09,6.09,0,0,1-2.49.29,6.43,6.43,0,0,1-2.51-.22,6.1,6.1,0,0,1,2.5-.3A6.43,6.43,0,0,1,230.74,426Z" style="fill:#455a64"></path><path d="M240.74,426a6.21,6.21,0,0,1-2.5.25,6,6,0,0,1-2.5-.27,6.43,6.43,0,0,1,2.5-.25A6.34,6.34,0,0,1,240.74,426Z" style="fill:#455a64"></path><path d="M250.74,426.13a12.16,12.16,0,0,1-5-.1,6.11,6.11,0,0,1,2.51-.21A5.9,5.9,0,0,1,250.74,426.13Z" style="fill:#455a64"></path><path d="M260.74,426.45a12.16,12.16,0,0,1-5-.18,6.12,6.12,0,0,1,2.51-.17A6.35,6.35,0,0,1,260.74,426.45Z" style="fill:#455a64"></path><path d="M270.73,426.94a6.16,6.16,0,0,1-2.51.13,6.25,6.25,0,0,1-2.49-.4,6.24,6.24,0,0,1,2.51-.12A6.35,6.35,0,0,1,270.73,426.94Z" style="fill:#455a64"></path><path d="M280.7,427.61a6.05,6.05,0,0,1-2.51.08,6.36,6.36,0,0,1-2.47-.43,6.15,6.15,0,0,1,2.51-.09A6.26,6.26,0,0,1,280.7,427.61Z" style="fill:#455a64"></path><path d="M289.55,428.36c0,.14-.89.18-1.95.08s-1.93-.28-1.91-.43.88-.18,1.95-.08S289.56,428.21,289.55,428.36Z" style="fill:#FF725E"></path><path d="M168.45,441.44a24.73,24.73,0,0,1-.89-3.3c-.51-2.05-1.23-4.88-2.12-8s-1.76-5.87-2.41-7.88a23.67,23.67,0,0,1-1-3.28,3.43,3.43,0,0,1,.41.82c.23.55.55,1.34.92,2.34.74,2,1.68,4.75,2.57,7.86s1.55,6,2,8c.21,1,.37,1.88.45,2.46A3.53,3.53,0,0,1,168.45,441.44Z" style="fill:#455a64"></path><path d="M204.49,439.49l1.89-9.4L224,433.52l-2.62,13.77-1.11-.14c-4.91-.68-24.93-3.78-28-5.4C188.87,440,204.49,439.49,204.49,439.49Z" style="fill:#FF725E"></path><path d="M221.71,446.93l-.31,0-.88-.12-3.23-.49c-2.72-.42-6.48-1.06-10.61-1.86s-7.85-1.6-10.54-2.22l-3.17-.75-.86-.22-.3-.09a1.31,1.31,0,0,1,.3,0l.87.18,3.19.69c2.7.58,6.42,1.36,10.55,2.16s7.88,1.45,10.59,1.92l3.22.55.87.15Z" style="fill:#263238"></path><path d="M197.88,442.82a4.65,4.65,0,0,0-1.16-3.08,2.42,2.42,0,0,1,1.06,1.36A2.45,2.45,0,0,1,197.88,442.82Z" style="fill:#263238"></path><path d="M203.59,441.19a3.93,3.93,0,0,1-.65-1.65c.06,0,.24.33.42.79A2,2,0,0,1,203.59,441.19Z" style="fill:#263238"></path><path d="M205.16,440.71s-.28-.21-.54-.54-.41-.63-.37-.66.29.2.54.54S205.21,440.67,205.16,440.71Z" style="fill:#263238"></path><path d="M206.39,439.22a2.18,2.18,0,0,1-.95-.06,2.53,2.53,0,0,1-.9-.27,2.13,2.13,0,0,1,.94.06A2.32,2.32,0,0,1,206.39,439.22Z" style="fill:#263238"></path><path d="M206.92,438.11a2.72,2.72,0,0,1-2.11-.25,6.82,6.82,0,0,1,1.05.14A6.34,6.34,0,0,1,206.92,438.11Z" style="fill:#263238"></path><path d="M203.29,439.53a3,3,0,0,1-1.13-.22,7.17,7.17,0,0,1-1.15-.5,3.9,3.9,0,0,1-.64-.42.68.68,0,0,1-.21-.41.47.47,0,0,1,.26-.41,2.11,2.11,0,0,1,2.44,1.1,2,2,0,0,1,.23.83.65.65,0,0,1,0,.31,3.21,3.21,0,0,0-.33-1.07,2,2,0,0,0-.84-.82,1.82,1.82,0,0,0-1.37-.17c-.21.1-.18.33,0,.49a3.32,3.32,0,0,0,.58.4,8.37,8.37,0,0,0,1.11.53C202.86,439.42,203.3,439.5,203.29,439.53Z" style="fill:#263238"></path><path d="M203,439.53a1.12,1.12,0,0,1,0-.81,2,2,0,0,1,.47-.76,1.14,1.14,0,0,1,1.05-.39.45.45,0,0,1,.24.58,1.17,1.17,0,0,1-.29.47,3.38,3.38,0,0,1-.66.58,1.51,1.51,0,0,1-.74.33s.27-.15.65-.45a3.69,3.69,0,0,0,.61-.59c.2-.21.39-.62.11-.73a1,1,0,0,0-.84.34,2,2,0,0,0-.46.67A3,3,0,0,0,203,439.53Z" style="fill:#263238"></path><path d="M222.28,442s-.49-.15-1.31-.21a5.92,5.92,0,0,0-3.07.62,5.85,5.85,0,0,0-2.26,2.17c-.41.7-.54,1.21-.57,1.19s0-.13.07-.35a4.68,4.68,0,0,1,.37-.91,5.57,5.57,0,0,1,2.3-2.28,5.49,5.49,0,0,1,3.18-.58,4.53,4.53,0,0,1,1,.21A1,1,0,0,1,222.28,442Z" style="fill:#263238"></path><path d="M221.88,434.36a33.69,33.69,0,0,1-.56,3.65,35.7,35.7,0,0,1-.75,3.61,31.76,31.76,0,0,1,.55-3.65A30.69,30.69,0,0,1,221.88,434.36Z" style="fill:#263238"></path><path d="M213.14,443.76a10,10,0,0,1-2.62-.25,10.36,10.36,0,0,1-2.54-.7c0-.06,1.15.24,2.57.5S213.14,443.7,213.14,443.76Z" style="fill:#263238"></path><path d="M216.59,444.43s-.14.22-.31.46-.28.46-.34.45,0-.29.17-.57S216.56,444.38,216.59,444.43Z" style="fill:#263238"></path><path d="M218.2,443.06c0,.05-.11.21-.33.35s-.42.24-.45.19.11-.21.33-.36S218.17,443,218.2,443.06Z" style="fill:#263238"></path><path d="M220.21,442.68c0,.05-.26,0-.53.05s-.5.14-.53.09.16-.26.5-.3S220.24,442.63,220.21,442.68Z" style="fill:#263238"></path><path d="M221.6,442.59c0,.05-.11.12-.26.15s-.3,0-.31-.05.11-.13.27-.15S221.59,442.53,221.6,442.59Z" style="fill:#263238"></path><path d="M335.94,428.65c-1.35,1.72-4.27,9.89-11.27,13.46-9.4,4.78-23.15,1.88-31.29-6.13-22.52-22.18-53.17-56.77-53.17-56.77l-13.78,60.1-25.79-4.09s14.51-69,22.79-79.36c3.14-3.91,11.21-12.29,26.26-1.45,13.74,9.91,35,28,67.9,58.76Z" style="fill:#455a64"></path><path d="M329,423.37a2.43,2.43,0,0,1-.73.44,7.88,7.88,0,0,1-2.23.66,8.91,8.91,0,0,1-10.35-8.89,8.12,8.12,0,0,1,.31-2.31,2.15,2.15,0,0,1,.33-.78,15.28,15.28,0,0,0-.27,3.07A8.82,8.82,0,0,0,326,424.1,16.56,16.56,0,0,0,329,423.37Z" style="fill:#263238"></path><path d="M226.36,434.36a4.36,4.36,0,0,1-1-.06l-2.76-.35c-2.32-.3-5.54-.7-9.09-1.11s-6.78-.77-9.1-1.09c-1.17-.16-2.11-.3-2.75-.41a4.22,4.22,0,0,1-1-.22,3.46,3.46,0,0,1,1,0l2.77.24c2.33.23,5.56.54,9.12.95s6.77.86,9.09,1.26c1.16.2,2.09.37,2.73.51A3.34,3.34,0,0,1,226.36,434.36Z" style="fill:#263238"></path><path d="M216.07,427.34a6.26,6.26,0,0,1-.33,2.49,6.4,6.4,0,0,1-.84,2.37,12.05,12.05,0,0,1,1.17-4.86Z" style="fill:#263238"></path><path d="M218.55,417.65a12.19,12.19,0,0,1-1.26,4.83,6.18,6.18,0,0,1,.38-2.48A6,6,0,0,1,218.55,417.65Z" style="fill:#263238"></path><path d="M221.21,408a6.07,6.07,0,0,1-.43,2.47,6.4,6.4,0,0,1-.92,2.34,11.87,11.87,0,0,1,1.35-4.81Z" style="fill:#263238"></path><path d="M224.07,398.43a6.44,6.44,0,0,1-.48,2.47,6.36,6.36,0,0,1-1,2.31,6.09,6.09,0,0,1,.47-2.46A6.19,6.19,0,0,1,224.07,398.43Z" style="fill:#263238"></path><path d="M227.12,388.91a6.37,6.37,0,0,1-.53,2.46,6.13,6.13,0,0,1-1,2.29,6.13,6.13,0,0,1,.53-2.45A6,6,0,0,1,227.12,388.91Z" style="fill:#263238"></path><path d="M230.34,379.45a6.35,6.35,0,0,1-.57,2.44,6.28,6.28,0,0,1-1.06,2.28,6.17,6.17,0,0,1,.57-2.45A6.1,6.1,0,0,1,230.34,379.45Z" style="fill:#263238"></path><path d="M233.7,370a6.06,6.06,0,0,1-.6,2.44,6.27,6.27,0,0,1-1.1,2.27,6.36,6.36,0,0,1,.61-2.44A6.42,6.42,0,0,1,233.7,370Z" style="fill:#263238"></path><path d="M238.65,368.37c-.1.1-.94-.65-1.87-1.68a16.28,16.28,0,0,1-1.32-1.63l.24-.05c-.13.23-.22.35-.27.33s0-.17,0-.43l0-.2.19.16a14.93,14.93,0,0,1,1.5,1.47C238.09,367.37,238.76,368.28,238.65,368.37Z" style="fill:#263238"></path><path d="M245.41,375.75c-.11.1-.95-.65-1.89-1.67a6.44,6.44,0,0,1-1.5-2c.11-.1.95.65,1.89,1.66S245.51,375.65,245.41,375.75Z" style="fill:#263238"></path><path d="M252.21,383.08c-.11.09-1-.65-1.9-1.66s-1.62-1.91-1.51-2,.95.65,1.89,1.66S252.31,383,252.21,383.08Z" style="fill:#263238"></path><path d="M259.05,390.37c-.1.1-1-.64-1.9-1.64s-1.63-1.91-1.52-2,.95.63,1.9,1.64S259.15,390.27,259.05,390.37Z" style="fill:#263238"></path><path d="M265.92,397.64c-.11.1-1-.64-1.91-1.64a6.38,6.38,0,0,1-1.53-2c.11-.1,1,.63,1.91,1.63S266,397.54,265.92,397.64Z" style="fill:#263238"></path><path d="M272.8,404.89c-.11.1-1-.63-1.91-1.63s-1.64-1.89-1.53-2,1,.63,1.91,1.63S272.9,404.79,272.8,404.89Z" style="fill:#263238"></path><path d="M279.68,412.15c-.11.1-1-.63-1.91-1.64s-1.64-1.89-1.53-2,1,.63,1.91,1.64S279.78,412.05,279.68,412.15Z" style="fill:#263238"></path><path d="M286.55,419.42c-.11.09-1-.64-1.91-1.64s-1.63-1.9-1.52-2,.95.64,1.9,1.64S286.65,419.32,286.55,419.42Z" style="fill:#263238"></path><path d="M293.73,426.35c-.08.12-1.09-.43-2.13-1.36s-1.73-1.84-1.62-1.93.94.64,2,1.54S293.81,426.23,293.73,426.35Z" style="fill:#263238"></path><path d="M303,429.86a7.26,7.26,0,0,1-4.86-1.12,9.63,9.63,0,0,1,2.45.49A9.14,9.14,0,0,1,303,429.86Z" style="fill:#263238"></path><path d="M312.5,427.54a4.8,4.8,0,0,1-2.1,1.42,4.37,4.37,0,0,1-2.47.57,11.32,11.32,0,0,1,2.26-1A9.09,9.09,0,0,1,312.5,427.54Z" style="fill:#263238"></path><path d="M318.34,422.5c.11.1-.2.65-.73,1.19s-1.07.89-1.17.78.27-.6.79-1.14S318.23,422.41,318.34,422.5Z" style="fill:#263238"></path><path d="M237.94,373.39a18.51,18.51,0,0,1,1.29,3.27,9.07,9.07,0,0,1,.81,3.44,19,19,0,0,1-1.3-3.27A8.69,8.69,0,0,1,237.94,373.39Z" style="fill:#263238"></path><path d="M340.61,398.54c.66-17.89-4.08-38.36-8.87-49,9-2.08,5.91-13.08,5.91-13.08s3.45-1.24.27-2.4-15.42,1-18.39,1.88a48.31,48.31,0,0,1-15.59,2.8c-7.06,16.64-10.79,22.26-11.09,27.63-2.93,4.15-5.57,7.42-7,8.06-4.49,2-30.72-25.63-30.72-25.63l-8.24,9.28s16.85,27.67,35.56,36.16c6,2.73,12.36.2,18.21-4.49,1,2.81,1.68,4.6,1.68,4.6l-3.17,2.91,36.75,31.37c0-.11.18-.42.21-.53a3.69,3.69,0,0,0,2.43.1,4,4,0,0,0,2.35-5c-.62-1.56-2.28-3.11-1.47-4.59.41-.75,1.32-1.05,1.93-1.65a3.74,3.74,0,0,0,.88-3.18,17,17,0,0,0-1-3.25,20.74,20.74,0,0,1-1.1-4.92q.35-3.57.47-7" style="fill:#FF725E"></path><path d="M303.86,338.43a14.52,14.52,0,0,1,2.45-.18c1.51-.08,3.59-.23,5.87-.56a44.16,44.16,0,0,0,5.76-1.16,4.75,4.75,0,0,0,2-1.28s-.05.25-.33.59a3.88,3.88,0,0,1-1.52,1,29.93,29.93,0,0,1-5.82,1.33,39.71,39.71,0,0,1-5.93.42A10.24,10.24,0,0,1,303.86,338.43Z" style="fill:#263238"></path><path d="M326,340.28a21.29,21.29,0,0,1,3.61,4.78,21,21,0,0,1,2.59,5.4c-.14.06-1.33-2.33-3-5.13S325.86,340.38,326,340.28Z" style="fill:#263238"></path><path d="M319.12,336.3a24.08,24.08,0,0,1,2.71.47,37.65,37.65,0,0,0,13.11.07,24.46,24.46,0,0,1,2.71-.44,10.56,10.56,0,0,1-2.64.81,30.86,30.86,0,0,1-6.63.69,30.19,30.19,0,0,1-6.63-.77A10.49,10.49,0,0,1,319.12,336.3Z" style="fill:#263238"></path><path d="M297.91,392.23a8.6,8.6,0,0,1,1.14-1c.38-.32.85-.71,1.35-1.19s1.12-1,1.73-1.63a58.81,58.81,0,0,0,4.17-4.56c1.47-1.81,3-3.87,4.5-6.1,3-4.49,5.32-8.77,7-11.87.81-1.49,1.49-2.72,2-3.67a10.07,10.07,0,0,1,.79-1.32,7.06,7.06,0,0,1-.61,1.41c-.43.9-1.06,2.18-1.87,3.75a125.72,125.72,0,0,1-6.91,12,75.89,75.89,0,0,1-4.56,6.11,52.5,52.5,0,0,1-4.28,4.53c-.63.62-1.26,1.12-1.8,1.58a17.86,17.86,0,0,1-1.41,1.12A9.36,9.36,0,0,1,297.91,392.23Z" style="fill:#263238"></path><path d="M313.88,343.51a12.93,12.93,0,0,1-1.56-.16,8.75,8.75,0,0,0-4.09.79,11.18,11.18,0,0,0-4.51,4.17,18.37,18.37,0,0,0-1.66,3.32c-.54,1.18-1.12,2.41-1.76,3.64a71.84,71.84,0,0,1-7.67,11.88c-1.13,1.43-2.11,2.52-2.79,3.27a9.56,9.56,0,0,1-1.12,1.1,9.41,9.41,0,0,1,1-1.24c.63-.79,1.56-1.91,2.64-3.35a81.93,81.93,0,0,0,7.51-11.9c.63-1.22,1.21-2.44,1.75-3.61.27-.6.5-1.17.79-1.76a15.73,15.73,0,0,1,.93-1.61,11.39,11.39,0,0,1,4.77-4.24,8.41,8.41,0,0,1,4.26-.66,11.46,11.46,0,0,1,1.15.24A1.13,1.13,0,0,1,313.88,343.51Z" style="fill:#263238"></path><path d="M302.44,399.32c.09-.11,7.74,6.08,17.09,13.83s16.84,14.14,16.75,14.25-7.74-6.09-17.09-13.84S302.35,399.43,302.44,399.32Z" style="fill:#263238"></path><path d="M305,398.65c.08-.12,6.82,4.91,15,11.22s14.81,11.52,14.72,11.64-6.81-4.91-15-11.23S304.91,398.76,305,398.65Z" style="fill:#263238"></path><path d="M309.4,395.46a23.22,23.22,0,0,1-6.85-1.34,12.14,12.14,0,0,1,3.48.42A12,12,0,0,1,309.4,395.46Z" style="fill:#263238"></path><path d="M286.78,382c-.16,0,0-1.67-.44-3.63s-1.24-3.41-1.11-3.49a6.24,6.24,0,0,1,1.62,3.38A6.39,6.39,0,0,1,286.78,382Z" style="fill:#263238"></path><path d="M283.74,380.51a23.77,23.77,0,0,1,.65-3.18,21.9,21.9,0,0,1,.58-3.19,9.76,9.76,0,0,1-1.23,6.37Z" style="fill:#263238"></path><path d="M320.7,349.62a28.53,28.53,0,0,1,4.18.83l.2,0-.05.21-.91,4.22-.2-.31,1.94.38,2.12.42.26.06-.06.25-1,3.9-.16-.26c1.3.29,2.37.54,3.11.73a4.47,4.47,0,0,1,1.14.36,4.39,4.39,0,0,1-1.19-.12c-.76-.12-1.83-.31-3.14-.56l-.22,0,0-.21c.28-1.19.58-2.5.91-3.92l.2.31-2.12-.41-1.94-.39-.26-.05.06-.25,1-4.2.15.24A29,29,0,0,1,320.7,349.62Z" style="fill:#263238"></path><path d="M330.47,380a31.24,31.24,0,0,1,2.78,3.23l.13.16-.16.13-3.32,2.77,0-.37,1.3,1.5c.48.56.95,1.11,1.41,1.63l.17.21-.21.16-3.17,2.46,0-.3c.85,1,1.53,1.88,2,2.48a4.47,4.47,0,0,1,.68,1,4.38,4.38,0,0,1-.86-.83c-.52-.56-1.26-1.37-2.14-2.37l-.14-.16.17-.14,3.13-2.53,0,.37-1.41-1.63-1.29-1.5-.18-.2.21-.17,3.37-2.69,0,.29A26.9,26.9,0,0,1,330.47,380Z" style="fill:#263238"></path><path d="M293.12,372.18a30.25,30.25,0,0,1,4.19.83l.19.05,0,.2-.91,4.22-.2-.31,1.94.38,2.12.42.26.06-.06.25-1,3.9-.16-.26c1.3.29,2.36.54,3.1.73a4.67,4.67,0,0,1,1.15.36,4.47,4.47,0,0,1-1.2-.12c-.75-.12-1.83-.31-3.14-.56l-.21,0,.05-.21c.28-1.18.58-2.5.91-3.92l.2.31-2.12-.41-1.94-.39-.26-.05.06-.25c.36-1.53.7-2.95,1-4.2l.15.24A29.6,29.6,0,0,1,293.12,372.18Z" style="fill:#263238"></path><path d="M310.12,369.38a27.09,27.09,0,0,1-2.3-3.59l-.1-.18.18-.1,3.67-2.27-.08.36-1.07-1.66-1.16-1.83-.15-.22.24-.13,3.49-2-.07.29c-.69-1.13-1.24-2.08-1.62-2.74a4.39,4.39,0,0,1-.53-1.08,4.31,4.31,0,0,1,.73.95c.44.63,1,1.54,1.78,2.65l.12.18-.19.11-3.46,2.06.09-.36,1.17,1.82,1.06,1.66.14.23-.22.13-3.73,2.18.07-.28A30.62,30.62,0,0,1,310.12,369.38Z" style="fill:#263238"></path><path d="M312.66,350.61a28.07,28.07,0,0,1,.86-4.17l.05-.2.2.05,4.21.94-.3.2c.12-.63.25-1.27.39-1.94l.44-2.11.05-.27.26.07,3.89,1-.26.16c.3-1.3.56-2.36.76-3.1a4.47,4.47,0,0,1,.36-1.14,3.79,3.79,0,0,1-.13,1.19c-.12.75-.32,1.83-.58,3.13l0,.22-.22-.06-3.9-.93.31-.2c-.14.68-.28,1.39-.43,2.12s-.27,1.31-.4,1.93l-.06.26-.25-.06-4.19-1,.24-.15A29.55,29.55,0,0,1,312.66,350.61Z" style="fill:#263238"></path><path d="M318.76,376.68a30.12,30.12,0,0,1,1.25-4.07l.07-.2.2.07,4.1,1.34-.32.16q.27-.92.57-1.89c.22-.71.43-1.4.64-2.06l.08-.26.25.09,3.77,1.39-.27.13c.42-1.26.78-2.3,1-3a4.17,4.17,0,0,1,.47-1.1,4.69,4.69,0,0,1-.24,1.17c-.2.74-.49,1.79-.87,3.07l-.06.21-.21-.08-3.8-1.3.32-.16c-.2.66-.41,1.35-.62,2.06s-.4,1.28-.58,1.89l-.08.26-.25-.09-4.08-1.43.27-.12A29.19,29.19,0,0,1,318.76,376.68Z" style="fill:#263238"></path><path d="M309.53,386.31a28.45,28.45,0,0,1,4.27.05h.2v.21c0,1.29-.08,2.75-.13,4.32l-.25-.27,2,0,2.16,0H318l0,.27c-.09,1.45-.18,2.79-.26,4l-.21-.22c1.33,0,2.42.1,3.19.16a4.49,4.49,0,0,1,1.18.14,4.43,4.43,0,0,1-1.19.1c-.76,0-1.86,0-3.19,0h-.21v-.22c.05-1.21.11-2.56.17-4l.26.27-2.17,0-2,0h-.27v-.26c.08-1.57.16-3,.22-4.32l.2.22A30.85,30.85,0,0,1,309.53,386.31Z" style="fill:#263238"></path><path d="M322.52,407a28.78,28.78,0,0,1,3.5-2.42l.17-.11.12.17,2.4,3.59-.36-.07L330,407l1.78-1.23.22-.16.14.23,2.1,3.42-.29-.06c1.11-.73,2-1.32,2.68-1.72a5.2,5.2,0,0,1,1-.58s-.3.32-.91.78-1.5,1.1-2.59,1.87l-.17.12-.12-.18c-.66-1-1.4-2.16-2.18-3.38l.36.08-1.77,1.23-1.63,1.13-.22.15-.14-.22L326,404.87l.28.06A28.6,28.6,0,0,1,322.52,407Z" style="fill:#263238"></path><path d="M262.84,373.7a29.69,29.69,0,0,1-2.71-3.29l-.13-.16.17-.13,3.38-2.69,0,.36-1.27-1.52-1.37-1.67-.17-.21.21-.15,3.24-2.39,0,.3c-.82-1-1.49-1.91-1.94-2.53a4.63,4.63,0,0,1-.66-1s.34.28.85.85,1.22,1.4,2.08,2.42l.14.16-.18.14-3.18,2.45,0-.36c.45.53.91,1.09,1.38,1.66l1.26,1.53.17.2-.21.16-3.44,2.62,0-.29A29.74,29.74,0,0,1,262.84,373.7Z" style="fill:#263238"></path><path d="M271,377.89a30.78,30.78,0,0,1,4.22.6l.2,0,0,.2c-.21,1.27-.44,2.72-.69,4.27l-.21-.3,2,.27,2.14.31.26,0-.05.26c-.28,1.43-.54,2.75-.78,3.94l-.18-.25c1.32.23,2.39.42,3.14.57a4.75,4.75,0,0,1,1.16.29,4,4,0,0,1-1.19-.06c-.76-.07-1.85-.2-3.17-.38l-.21,0,0-.22c.2-1.19.44-2.52.69-3.95l.21.3-2.14-.3-1.95-.28-.27,0,.05-.26.77-4.25.17.24A30,30,0,0,1,271,377.89Z" style="fill:#263238"></path><path d="M315.59,361a18.7,18.7,0,0,1,3.39-5.16,18.7,18.7,0,0,1-3.39,5.16Z" style="fill:#fff"></path><path d="M332.86,374.06c.1-.11.94.53,1.87,1.42s1.6,1.69,1.51,1.8-.94-.54-1.87-1.43S332.76,374.16,332.86,374.06Z" style="fill:#fff"></path><path d="M316.45,380.82a6.92,6.92,0,0,1,2.79,1,6.85,6.85,0,0,1,2.43,1.74,33.72,33.72,0,0,1-5.22-2.77Z" style="fill:#fff"></path><path d="M323.79,365.4a7.33,7.33,0,0,1-.3-4.83,7.88,7.88,0,0,1,.26,2.41A8.3,8.3,0,0,1,323.79,365.4Z" style="fill:#fff"></path><path d="M328.76,349.58c-.12.08-.75-.75-1.4-1.84s-1.08-2-.95-2.11.75.75,1.4,1.84A5.41,5.41,0,0,1,328.76,349.58Z" style="fill:#fff"></path><path d="M332.85,343.7c-.13-.07.23-.86.8-1.75s1.12-1.55,1.24-1.48-.24.87-.8,1.76S333,343.78,332.85,343.7Z" style="fill:#fff"></path><path d="M312.5,340.93a9.13,9.13,0,0,1,2.2-.33,8.19,8.19,0,0,1,2.2-.25,3.63,3.63,0,0,1-2.13.77A3.58,3.58,0,0,1,312.5,340.93Z" style="fill:#fff"></path><path d="M303.29,345.77c-.15,0-.16-.91,0-2s.34-2,.48-1.94.16.91,0,2S303.43,345.79,303.29,345.77Z" style="fill:#fff"></path><path d="M302.71,362.77a12.85,12.85,0,0,1,.28-3.63,12.69,12.69,0,0,1,.79-3.54,25.65,25.65,0,0,1-1.07,7.17Z" style="fill:#fff"></path><path d="M301.83,372.07a11.59,11.59,0,0,1,3.3.88,11.08,11.08,0,0,1,3.13,1.37,22.5,22.5,0,0,1-6.43-2.25Z" style="fill:#fff"></path><path d="M292.5,385a17.17,17.17,0,0,1-.09-6,17.83,17.83,0,0,1,.09,6Z" style="fill:#fff"></path><path d="M284.94,391.87c-.06-.13.85-.63,2-1.12a5.39,5.39,0,0,1,2.22-.65c.06.13-.85.64-2,1.13A5.28,5.28,0,0,1,284.94,391.87Z" style="fill:#fff"></path><path d="M273.49,375.07a13,13,0,0,1,2.89.35,13.33,13.33,0,0,1,2.87.48,9.43,9.43,0,0,1-5.76-.83Z" style="fill:#fff"></path><path d="M266.94,380.64a15.81,15.81,0,0,1,0-5.71,15.81,15.81,0,0,1,0,5.71Z" style="fill:#fff"></path><path d="M268.52,369.22a6.23,6.23,0,0,1-.68-2.38,6,6,0,0,1-.16-2.46,5.87,5.87,0,0,1,.68,2.37A6.08,6.08,0,0,1,268.52,369.22Z" style="fill:#fff"></path><path d="M255.78,362.91a8.52,8.52,0,0,1-.55-2.9,8.67,8.67,0,0,1,0-3,8.41,8.41,0,0,1,.55,2.91A8.58,8.58,0,0,1,255.78,362.91Z" style="fill:#fff"></path><path d="M312.18,399.47a21,21,0,0,1,3.31.69,22.11,22.11,0,0,1,3.31.71,7.65,7.65,0,0,1-3.42-.2A7.84,7.84,0,0,1,312.18,399.47Z" style="fill:#fff"></path><path d="M324.07,400.84a10.85,10.85,0,0,1,3.06-1.35,11.16,11.16,0,0,1,3.24-.86,10.68,10.68,0,0,1-3.06,1.35A11.16,11.16,0,0,1,324.07,400.84Z" style="fill:#fff"></path><path d="M336.24,389.14a18.54,18.54,0,0,1,.13,3.37,19.39,19.39,0,0,1,0,3.37,12.32,12.32,0,0,1-.16-6.74Z" style="fill:#fff"></path><path d="M333.89,414.91a15.24,15.24,0,0,1,5.13-2.19,15.24,15.24,0,0,1-5.13,2.19Z" style="fill:#fff"></path><polygon points="262.04 349.63 239.81 337.43 239.01 339.15 261.14 351.55 262.04 349.63" style="fill:#263238"></polygon><path d="M254.89,349.24s-3.36-6.89-4.11-8.36-2-4-2.41-4-1.8.33.45,4.7-2,1.95-2,1.95l-4.26-2.39s-2.21,9.47-.2,12.11a19.53,19.53,0,0,0,4.93,4.48Z" style="fill:#ffbe9d"></path></g></svg>